<?xml version="1.0" encoding="UTF-8"?>
<svg id="Layer_1" xmlns="http://www.w3.org/2000/svg" version="1.1" viewBox="0 0 435.36 244.08">
  <!-- Generator: Adobe Illustrator 29.5.1, SVG Export Plug-In . SVG Version: 2.1.0 Build 141)  -->
  <defs>
    <style>
      .st0 {
        fill: #fff;
      }
    </style>
  </defs>
  <path class="st0" d="M435.36,0v244.08H0V0h435.36ZM139.84,17.74h-18.11L116.09.72l-5.75,17.02h-18.47l14.8,10.91-5.69,16.9,14.76-10.32,14.86,10.32-5.36-17.1,14.6-10.72ZM198.37,23.98h-18.11l-5.64-17.02-5.75,17.02h-18.47l14.6,10.72-5.48,17.33,14.99-10.54,14.75,10.3-5.53-17.1,14.65-10.71ZM59.97,28.05l-4.92-15.11-5.28,15.11h-15.71l12.68,9.28-4.64,14.94,12.91-9.08,12.87,9.08-4.81-14.96,12.73-9.25h-15.83ZM44.62,64.26h-14.99l-5.15-14.39-4.56,14.39H4.8l12.01,8.8-4.57,14.46,12.35-8.79,12.47,8.8-4.63-14.24,12.19-9.02ZM107.46,86.55h63.45l.36-.36v-27.57l-.36-.36h-101.22l-.36.36v132.11l.36.36h103.26v-29.97h-65.12l-.36-.36v-26.01h59.01v-26.85l-59.01-.24v-21.1ZM227.51,58.26h-41.62l38.39,63.64-41.86,69.19h41.74l24.35-42.68,24.58,42.68h42.34l-41.5-68.47,37.9-64.36h-41.26l-21.35,40.76-21.71-40.76ZM328.38,58.26v132.83h37.9v-49.15s21.24,0,21.24,0c24.89.38,43.66-12.18,45.2-38.25s-9.67-43.96-36.81-45.44h-67.53ZM37.66,107.17h-14.03l-4.56-13.19-4.2,13.19H.48l11.24,8.32-4.04,13.26,11.39-8.07,11.39,8.07-4.28-13.28,11.47-8.29ZM28.18,147.46h-11.39l9.13,6.64-3.37,10.86,9.27-6.43,9.31,6.44-3.4-10.69,9.28-6.82h-11.39l-3.6-10.55-3.84,10.55ZM35.02,210.51c.22-.32-.92-1.3-1.19-1.56-5.79-5.5-16.42-7.2-21.12.47-5.49,8.95,7.74,15.31,12.85,20.02,2.05,1.89,4,4.33,1.08,6.6-2.48,1.93-5.84,1.12-8.05-.84-.66-.59-2.11-2.87-2.63-2.88-.34,0-5.43,2.76-5.97,3.15-.69.5.04,1.2.47,1.86,6.95,10.78,27.11,8,25.26-6.07-.85-6.46-11.32-10.95-15.31-15.39-3.06-3.42.91-5.64,4.29-4.53,1.99.66,3.01,2.32,4.63,3.44l5.68-4.29ZM209.78,215.93c3.59-4.02,8.1-5.16,13.42-4.7,4.02.34,7.74,2.78,10.75,5.27l5.17-4.69c-12.76-14.37-42.01-7.47-40.28,14.18.82,10.19,9.68,17.25,19.54,17.88,8.13.52,14.79-1.54,20.76-7.09l-5.4-5.09c-5.05,4.99-12.37,6.83-19.06,4.13-8.01-3.22-10.76-13.32-4.9-19.88ZM405.94,232.73c-4.24-4.47-4.47-12.02-.45-16.7,6.19-7.2,17.93-5.94,24.23.44,1.42-1.21,3.1-2.4,4.44-3.67.36-.34,1.1-.85.85-1.32-.68-1.33-5.89-4.42-7.41-5.08-15.71-6.84-36.25,3.15-32.44,22.11,3.46,17.21,29.18,20.22,39.69,8.05l-5.14-4.94c-5.82,6.36-17.66,7.56-23.78,1.11ZM73.64,205.24h-22.79v37.64h22.79v-6.95h-15.11l.24-10.07h14.87v-6.71h-14.87s0-6.95,0-6.95h14.87v-6.95ZM102.3,205.24c-4.35-.35-9.15.26-13.55,0v37.64h7.92v-16.06l1.07.49,9.01,15.57h8.64l-9.6-16.65c6.2-2.03,9.31-7.38,7.31-13.78-1.48-4.74-6.17-6.83-10.78-7.2ZM134.33,205.24h-8.16l14.98,37.66,7.53-.05,14.9-37.61h-8.16l-10.44,26.62-10.67-26.62ZM184.7,205.24h-7.92v37.64h7.92v-37.64ZM276.57,205.24h-22.79v37.64h22.79v-6.95h-15.11v-9.71l.36-.36h14.75v-6.71h-14.75l-.36-.36v-6.59h15.11v-6.95ZM338.93,205.24h-7.92v37.64h19.67v-6.35l-.36-.36h-11.39v-30.93ZM371.8,205.24h-7.92v37.64h19.67v-6.71h-11.75v-30.93Z"/>
  <polygon points="107.46 86.55 107.46 107.65 166.47 107.89 166.47 134.75 107.46 134.75 107.46 160.76 107.82 161.12 172.94 161.12 172.94 191.09 69.68 191.09 69.32 190.73 69.32 58.62 69.68 58.26 170.91 58.26 171.27 58.62 171.27 86.2 170.91 86.55 107.46 86.55"/>
  <polygon points="227.51 58.26 249.23 99.02 270.57 58.26 311.83 58.26 273.93 122.62 315.43 191.09 273.09 191.09 248.51 148.41 224.16 191.09 182.42 191.09 224.28 121.9 185.9 58.26 227.51 58.26"/>
  <path d="M328.38,58.26h67.53c27.13,1.47,38.34,19.62,36.81,45.43s-20.31,38.64-45.2,38.25h-21.24s0,49.14,0,49.14h-37.9V58.26ZM366.28,85.96v28.77c.21.34.48.33.83.37,5.21.61,16.75.01,21.45-2.32,6.62-3.29,8.69-11.19,6.51-17.96-3.88-12.07-18.51-9.29-28.4-9.72-.11.03-.37.74-.39.85Z"/>
  <polygon points="198.37 23.98 183.72 34.69 189.25 51.79 174.5 41.49 159.51 52.03 164.99 34.69 150.4 23.98 168.87 23.98 174.62 6.95 180.26 23.98 198.37 23.98"/>
  <polygon points="139.84 17.74 125.24 28.46 130.61 45.56 115.75 35.23 100.98 45.55 106.67 28.65 91.87 17.74 110.34 17.74 116.09 .72 121.73 17.74 139.84 17.74"/>
  <path d="M102.3,205.24c4.61.38,9.31,2.47,10.78,7.2,2,6.4-1.11,11.75-7.31,13.78l9.6,16.65h-8.64l-9.01-15.57-1.07-.49v16.06h-7.92v-37.64c4.4.26,9.2-.35,13.55,0ZM102.3,212.19c-1.71-.23-3.87.17-5.64,0v7.91h3.48c.75,0,3.06-.45,3.81-.74,3.59-1.42,2.3-6.64-1.65-7.17Z"/>
  <path d="M209.78,215.93c-5.86,6.55-3.11,16.65,4.9,19.88,6.69,2.69,14.02.86,19.06-4.13l5.4,5.09c-5.97,5.55-12.63,7.61-20.76,7.09-9.86-.63-18.72-7.69-19.54-17.88-1.73-21.65,27.52-28.54,40.28-14.18l-5.17,4.69c-3.01-2.49-6.73-4.92-10.75-5.27-5.33-.45-9.83.68-13.42,4.7Z"/>
  <path d="M405.94,232.73c6.13,6.45,17.96,5.25,23.78-1.11l5.14,4.94c-10.51,12.16-36.24,9.16-39.69-8.05-3.81-18.96,16.72-28.96,32.44-22.11,1.52.66,6.72,3.75,7.41,5.08.24.47-.5.98-.85,1.32-1.35,1.27-3.03,2.46-4.44,3.67-6.3-6.38-18.04-7.64-24.23-.44-4.03,4.69-3.8,12.23.45,16.7Z"/>
  <polygon points="73.64 205.24 73.64 212.19 58.77 212.19 58.77 219.15 73.64 219.14 73.64 225.86 58.77 225.86 58.53 235.93 73.64 235.93 73.64 242.88 50.85 242.88 50.85 205.24 73.64 205.24"/>
  <polygon points="276.57 205.24 276.57 212.19 261.46 212.19 261.46 218.78 261.82 219.14 276.57 219.14 276.57 225.86 261.82 225.86 261.46 226.22 261.46 235.93 276.57 235.93 276.57 242.88 253.78 242.88 253.78 205.24 276.57 205.24"/>
  <polygon points="134.33 205.24 145 231.85 155.43 205.24 163.59 205.24 148.69 242.85 141.15 242.9 126.17 205.24 134.33 205.24"/>
  <polygon points="59.97 28.05 75.8 28.05 63.07 37.3 67.88 52.27 55.01 43.19 42.1 52.27 46.74 37.33 34.06 28.05 49.77 28.05 55.05 12.94 59.97 28.05"/>
  <path d="M35.02,210.51l-5.68,4.29c-1.62-1.12-2.65-2.79-4.63-3.44-3.38-1.12-7.35,1.11-4.29,4.53,3.98,4.44,14.46,8.93,15.31,15.39,1.84,14.07-18.32,16.85-25.26,6.07-.43-.66-1.16-1.37-.47-1.86.54-.39,5.63-3.15,5.97-3.15.51,0,1.96,2.29,2.63,2.88,2.21,1.96,5.56,2.77,8.05.84,2.92-2.27.97-4.72-1.08-6.6-5.11-4.71-18.34-11.07-12.85-20.02,4.7-7.67,15.33-5.98,21.12-.47.27.26,1.41,1.24,1.19,1.56Z"/>
  <polygon points="44.62 64.26 32.43 73.28 37.06 87.52 24.59 78.72 12.24 87.51 16.81 73.05 4.8 64.26 19.91 64.26 24.47 49.87 29.62 64.26 44.62 64.26"/>
  <polygon points="37.66 107.17 26.19 115.47 30.46 128.75 19.07 120.68 7.68 128.75 11.72 115.5 .48 107.17 14.87 107.17 19.07 93.99 23.63 107.17 37.66 107.17"/>
  <polygon points="371.8 205.24 371.8 236.17 383.55 236.17 383.55 242.88 363.88 242.88 363.88 205.24 371.8 205.24"/>
  <polygon points="338.93 205.24 338.93 236.17 350.33 236.17 350.69 236.53 350.69 242.88 331.02 242.88 331.02 205.24 338.93 205.24"/>
  <rect x="176.78" y="205.24" width="7.92" height="37.64"/>
  <polygon points="28.18 147.46 32.02 136.9 35.62 147.46 47.01 147.46 37.73 154.27 41.13 164.96 31.82 158.52 22.55 164.96 25.92 154.1 16.79 147.46 28.18 147.46"/>
  <path class="st0" d="M366.28,85.96c.02-.12.28-.82.39-.85,9.89.43,24.52-2.35,28.4,9.72,2.18,6.77.11,14.67-6.51,17.96-4.7,2.33-16.24,2.93-21.45,2.32-.35-.04-.62-.03-.83-.37v-28.77Z"/>
  <path class="st0" d="M102.3,212.19c3.96.53,5.25,5.75,1.65,7.17-.75.3-3.06.74-3.81.74h-3.48v-7.91c1.77.17,3.92-.23,5.64,0Z"/>
</svg>