<?xml version="1.0" encoding="UTF-8"?>
<svg id="Layer_1" xmlns="http://www.w3.org/2000/svg" version="1.1" viewBox="0 0 46.56 157.2">
  <!-- Generator: Adobe Illustrator 29.5.1, SVG Export Plug-In . SVG Version: 2.1.0 Build 141)  -->
  <defs>
    <style>
      .st0 {
        fill: #fff;
      }
    </style>
  </defs>
  <path class="st0" d="M46.56,0v157.2H0V0h46.56ZM19.44,41.22h-5.4c-.26,0-4.39-1.12-3.72-1.68,1.14-.31,3.1.96,3.96.96h3.72c-.05-.3-.44-.53-.71-.61-1.44-.42-3.5-.41-5.15-.85-1.55-.41-2.96-1.12-4.46-1.66-.07-1.25,1.7-.03,2.52.25,1.78.6,3.56,1.07,5.4,1.43-.03-.19.06-.46.01-.59-.15-.44-5.09-1.47-6.07-1.86-.32-.13-2.25-1.05-2.34-1.15-.03-.03-.09-.5.12-.48.91-.24,4.73,2.32,6.12,1.8-1.06-1.45-3.32-1.63-4.97-2.47-.69-.36-3.19-1.97-3.43-2.57-.18-.43.27-.43.56-.32.83.33,2.5,1.85,3.6,2.4.28.14,2.81,1.41,2.56.56-.41-1.41-2.74-1.88-3.91-2.57-2.31-1.36-4.01-3.1-5.45-5.35,1.01-.31,1.85,1.64,2.51,2.29.47.46,4.85,3.68,5.17,3.34-.08-2.16-1.42-2.17-2.71-3.16-2.26-1.73-4.53-3.99-4.96-6.9,1.83,2.52,3.3,5.72,6.48,6.95,0-2.26-2.33-3.29-3.56-4.95-.63-.86-2.32-4.03-2.44-5-.04-.28.03-.51.36-.35.38.19,1.15,2.59,1.52,3.27.26.47,2.78,4.29,3.4,3.67-.24-2.22-2.23-3.34-3.17-5.34-.32-.69-1.63-5.17-1.39-5.44.66-.72,1.13,2.73,1.21,2.98.55,1.69,1.45,3.57,2.86,4.69.62-2.16-1.26-3.64-1.96-5.59-.46-1.28-.85-3.02-.67-4.36.04-.33.16-.74.48-.36.38.46.4,6.5,2.4,7.19.76-1.53-.25-2.08-.66-3.29-.65-1.94-1-4.98.07-6.77.38.18.12.65.12.84v4.31c0,.25.58,2.29,1.2,2.04.66-.48-.75-7.45.84-9.34.3-.35.58-.03.59.12.02.35-.67,2.73-.72,3.59-.04.61-.06,1.59,0,2.17.18,1.41,1.12-1.29,1.18-1.7.36-2.57-.23-3.3,1.41-5.79.29-.44,1.17-1.88,1.73-1.38-1.41,1.78-2.73,4-2.52,6.35,2.27-2.65,2.51-6.58,6-8.14.33.21.07.6-.13.83-.79.9-2.32,1.52-2.63,3l3.77-2.83c.44-.16.87-.8,1.27-.17l-4.79,3.83c.38.57.45.18.82.11,1.53-.31,2.8-.96,3.86-2.14.03,1.3-2.37,2.82-3.66,3.06-.69.13-1.7-.11-2.22.18-.14.08-1.91,2.47-1.92,2.63-.01.41.5.21.67.2,1.83-.16,3.86-1.31,5.31-2.38.58-.43,1.2-1.37,1.7-1.66.29-.16.82-.35.72.24-1.65,1.8-3.66,3.55-6.05,4.27-2.14.65-3.62-.06-3.79,3.04,2.81-.22,5.54-.75,7.56-2.87.51-.53,2.42-3.57,2.64-3.59.88-.08-.39,1.98-.6,2.15l2.64-.24c-.56-1.11.32-1.83.27-2.76-.03-.46-.4-.76-.41-.96-.02-.33.66-1.37.61-1.93-.05-.62-.9-.66-.92-.93-.02-.22,1.18-2.23.69-3-1.41.16-2.78.66-3.96,1.43-.66-2.63-3.08.68-3.84.96-.44.16-.32-.45-.5-.49-1.37-.3-2.89,2.37-3.09,2.39-.15.01-.73-.62-1.06-.44-.28.16-1.85,2.84-2.18,3-.27.13-.45-.4-.72-.28-.75.34-1.17,2.73-1.43,2.92-.34.25-.89-.52-1.43.24-.57.81-.63,2.92-.85,3.23s-.98.12-1.23.45c-.66.89-.03,3.29-.14,3.71-.14.53-1.06.29-1.16.39-.32.31.31,2.4.21,2.72s-.66.3-.72.55c-.19.88,1.13,3.17.99,3.78-.05.22-.94.15-.97.49-.01.13,1.05,2.06,1.23,2.36.56.95,1.89,1.27-.28,1.72.06.75,2.63,2.45,2.63,2.64,0,.29-1.53.83-1.19,1.31.51.2,2.11,1.31,2.3,1.69.24.48-.63.92-.35,1.4.06.11,1.67,1.32,1.95,1.52.45.33,1.69.83,1.86,1.02.39.45.08,1.11.47,1.45.22.19,2.49,1.02,2.94,1.14,1.81.48,4.19.57,6.06.41.77-.07,1.58-.11,1.32-.96ZM28.08,1.92c-.14.14-3.11-1.36-3.77-1.4-1.34-.08.18,2.57.18,2.97,0,.58-.72.37-.75.94-.06.84.75,2.05.74,2.16-.02.22-.7.27-.74.51-.09.51.68,1.38.69,1.93,0,.42-.7.63-.08,1.04.69.46,1.55.15,2.29.23.33-.29-1.45-1.83-.36-1.91,2.4,3.99,5.29,6.34,10.2,6.23-.35-3.17-2.18-2.45-4.37-3.18-1.25-.42-5.1-2.91-5.46-4.13s1.66.96,1.8,1.08c1.92,1.47,3.91,2.55,6.35,2.88.22-.22-1.63-2.86-1.92-3-.57-.28-1.52-.04-2.23-.17-1.68-.31-2.65-1.57-3.78-2.7.75-.44,1.18.63,1.69.94.94.57,1.98,1.03,3.1,1.09.55-.5-4.36-3.6-4.56-4.19,1.84.12,3.59,2.03,4.92,3.23.03-1.42-2.38-2.58-2.76-3.47-.13-.3.05-.44.35-.35,2.45.72,4.03,5.99,5.41,7.9.42.01.27-1.07.24-1.32-.08-.62-.31-1.27-.54-1.86-.44-1.12-1.58-2.2-1.86-2.94-.15-.4.13-.47.48-.24,1.01.65,2.4,3.66,2.57,4.86.22,1.53-.35,3.15.9,4.37.5-.33.32-.55.3-1-.05-1.03-.1-2.14-.2-3.16-.05-.46-.66-2.08-.45-2.3.75-.81,1.41,3.83,1.43,4.2.12,2.09-.92,3.68,0,5.63,1.91-.94.71-6.91.96-7.19.58-.65.93,1.77.95,2.04.11,1.41-.15,2.89-.54,4.24-.32,1.11-1.62,2.35-.53,3.54,1.7-.75,1.9-7.03,2.28-7.31.21-.16.43.12.47.26.14.57-.39,3.42-.59,4.17-.62,2.41-2.52,3.58-2.28,5.99.41.48,1.9-1.88,2.04-2.15.94-1.73,1.02-3.18,1.52-4.96.11-.4-.18-.67.51-.55.06,2.91-1.12,5.39-2.68,7.75-.71,1.07-1.96,1.57-1.64,3.28,1.95-1.12,3.2-3.57,4.12-5.59.15-.33.38-1.54.45-1.59.13-.09.78-.21.67.31-.21,1.04-1.75,4.11-2.41,5.02-1.2,1.62-3.69,2.78-3.56,4.95,3.19-1.23,4.61-4.37,6.48-6.95-.61,2.81-2.72,5.2-4.96,6.9-1.34,1.02-2.51.99-2.95,3.04,1.28.04,2.96-1.24,3.95-2.05.79-.63,3.14-3.49,3.37-3.59.95-.4-.39,1.49-.5,1.65-.9,1.26-2.41,2.63-3.72,3.47-1.48.94-4.28,1.48-4.54,3.26.71.73,5.32-3,6.17-3.3.3-.11.73-.14.55.31-.41,1.01-4.12,2.94-5.21,3.42-1.16.51-2.61.36-3.42,1.61,2.15.37,4.02-1.22,5.93-1.75.29-.08.76-.13.55.31-.78,1.59-8.17,2.43-8.64,3.36-.34.68,1.68.05,1.92,0,1.67-.35,4.4-1.66,5.66-1.78.28-.03.79-.12.58.34-.17.35-3.25,1.52-3.84,1.68-1.23.35-5.67.78-6.22,1.21-.24.19-.32.24-.26.58,1.13.65,7.38-1.45,7.68-1.2.81.7-3.27,1.56-3.55,1.6-1.93.33-3.63.41-5.57.07-.9.92,2.71,1.22,3.24,1.22,1.1-.01,7.03-1.04,7.27-2.08.07-.29-.32-.55.04-.93.61-.65,4.22-1.92,4.11-3.34-.02-.22-.72-.28-.73-.49-.04-.77,4.12-1.97,1.55-2.99l-.11-.36c.56-.4,2.17-1.86,2.4-2.4.25-.6-1.05-.2-1.19-.72.66-.52,2.49-3.04,2.05-3.71-.15-.22-.81-.38-.83-.6-.01-.15,1.03-1.85.96-2.89-.04-.56-.49-.87-.52-1.43-.04-.65.47-1.46.24-2.13-.17-.48-1.01-.33-1.16-.78-.13-.39.24-.93.2-1.38-.03-.35-.34-2.21-.44-2.39-.19-.32-.81-.02-1.1-.39-.33-.41-.43-2.65-1.2-3.38-.36-.34-1.09.2-1.31,0-.11-.09-.35-2.01-1.1-2.64-.43-.37-.78.08-1.07-.09-.36-.22-1.22-2.45-2.16-2.91-.47-.23-.66.41-.96.28-.59-.25-2.02-2.46-2.94-2.26-.23.05-.46.46-.75.42-.2-.03-1.7-1.72-2.73-1.86s-.66.8-.79.92ZM23.52,20.85c.15.15.81-.03,1.07-.25.24-.19,3.48-4.54,3.69-4.95,1.49-2.9-.7-5.39-3.86-4.57-.41.11-1.1.86-1.26.86-.13,0-.56-.58-.91-.73-2.83-1.2-5.5,1.1-4.3,4.05.23.57,3.6,5.3,3.89,5.46.22.12.87.21.96.12.15-.14-.36-2.86.48-2.04.51.49.1,1.91.24,2.04ZM16.8,14.38v-.96s-1.2.48-1.2.48c-.06.41,1.14.53,1.2.47ZM30.72,13.9c-1.82-.81-1.29.7-.37.46.11-.03.44-.37.37-.46ZM21.36,21.81c.04-.34.01-.62-.13-.95-.22-.49-3.22-4.43-3.7-4.93-1.4-1.45-3.71-1.6-4.86.19-1.25,1.95,0,2.51-.17,3.61-.03.19-2.07,1.05-1.93,3.12s1.83,2.96,3.71,2.79c.59-.06,6.38-1.9,6.56-2.19.86-1.4-1.92-.75-1.88-1.88l2.4.24ZM33.28,15.66c-1.14-1.19-3.3-1.05-4.49.03-.38.35-3.87,5.28-3.95,5.62-.06.27.13.49.12.74l2.4-.48c.04,1.14-2.75.48-1.88,1.88.18.29,5.86,2.11,6.34,2.17,2.91.35,4.96-2.25,3.33-4.76-.29-.44-1.18-.98-1.27-1.38-.23-.99.81-2.35-.6-3.82ZM12.24,15.1c-1.35-.31-3.55.29-3.11,2.01.29,1.14,3.37-.74,3.11-2.01ZM34.32,15.1c-.06,1.37,1.22,2.45,2.55,2.38.93-.05.08-1.89-.14-2.03-.12-.08-2.32-.44-2.41-.35ZM11.28,17.73c-1.59.16-2.84.24-2.64,2.16,1.46-.29,3.07-.16,2.64-2.16ZM37.68,19.89c.48-1.73-1.2-2.2-2.53-1.93-.7,1.71,1.32,1.68,2.53,1.93ZM10.32,20.13l-1.65.51-.03,2.61c1.55.14,1.2-2.06,1.68-3.11ZM37.92,23.24l-.11-2.4-1.81-.47c1.15,1.08-.02,3.04,1.92,2.87ZM24.68,23.04c0-.84-.69-1.53-1.53-1.53s-1.53.68-1.53,1.53.69,1.53,1.53,1.53,1.53-.68,1.53-1.53ZM10.06,23.74c-1.75-.01-1.5,1.06-1.18,2.38.23.19,1.87-.57,1.89-.83l-.72-1.54ZM37.68,26.36c.81-2.91-1.42-3.82-1.9-.74l1.9.74ZM20.4,26.6c-.29-.29,1.79-2.05.57-2.38-.34-.09-6.15,1.77-6.74,2.09-2.3,1.25-1.9,5.02.63,5.7.53.14,1.32,0,1.7.22.26.15.51,1.2.94,1.7,1.96,2.25,5.14.74,5.51-1.95.09-.65-.15-6.3-.33-6.57-.74-1.1-1.75,1.73-2.28,1.2ZM23.52,25.52c-.3,1.03,0,5.7,0,7.19,0,.08.67,1.17.83,1.33,1,1.05,2.25,1.15,3.56.66,1.8-.69,1.36-2.09,1.85-2.47.27-.21,1.41-.28,1.92-.48,2.67-1.04,2.68-4.63,0-5.74-.75-.31-6.47-2.05-6.71-1.8-.5.5,1.21,2.14.96,2.39-.44.44-1.97-2.58-2.4-1.08ZM9.61,28.99c.56.4,2.56-1.57,2.88-2.02.51-.73-.72-1.29-1.23-1.21-.44.07-2.09,1.14-2.09,1.63,0,.13.37,1.56.44,1.61ZM33.87,26.39c-.35.62,2.19,3.15,2.97,2.37,1.26-1.26-.58-2.84-1.7-2.89-.25-.01-1.21.41-1.27.52ZM12,28.52c-2.15.77-2.14,1.89-.84,3.59,1.32-1.01.82-2.17.84-3.59ZM35.52,32.11c.06-.06.67-1.53.69-1.62.17-1-.85-1.58-1.64-1.98.21.69-.29,1.66-.2,2.23.03.2.79,1.71,1.15,1.37ZM12.27,31.43c-.81,1.11-.56,2.1.33,3.08.75-.97,1.57-3.14-.33-3.08ZM33.6,34.51c.71.53,1.86-2.53.35-3.11-1.58-.08-.62,2.91-.35,3.11ZM15.6,32.83c-.42.08-1.48-.19-1.71.14-.66.96-.67,3.15.63,3.69.46.19.34-.29.42-.53.15-.47.86-3.1.66-3.31ZM31.11,32.86c-.29.09-.31.18-.3.46.02.45.66,3.47,1.23,3.34,1.59-.36,1.34-4.47-.92-3.8ZM16.08,33.79c.25,1.45-1.4,3.02-.25,4.21.58.6,1.16.89,1.44-.03.51-1.67.5-3.3-1.18-4.18ZM29.28,38.58c2.85-.02,1.29-3.11.96-4.79-1.99,1.52-1.24,2.63-.96,4.79ZM21.86,35.93c-.07-.04-.16-.67-.38-.7-1.14-.12-.75,2.14-.86,2.73-.18.94-.77,1.78-.7,2.78,2.23-.21,2.79-3.19,2.64-5.03-.09-.1-.59.28-.7.22ZM26.64,40.74c.11-.1-.61-2.08-.69-2.54-.15-.83.38-2.59-.87-2.74-.44-.05-.26.86-1.31.25-.11,1.24.71,4.49,1.9,4.93.21.08.89.18.97.1ZM19.88,35.98c-.07-.11-.85-.31-1.04-.29-.9.11-.49,1.11-.66,1.75-.42,1.58-1.18,1.74.66,2.79.74-.02,1.42-3.66,1.04-4.25ZM28.08,35.7c-1.82-.18-1.64,1.28-1.42,2.74.05.31.6,1.76.83,1.82,2.41-.65.4-2.78.59-4.56ZM20.54,41.23c-.93.28.37,1.75,1.06,1.57,1.64-.43-.22-1.82-1.06-1.57ZM18,45.29c.47.4,2.89.2,3.6-.12.63-.28,4.65-3.15,4.56-3.59-.24-1.19-3.73,1.38-4.31,1.68-1.12.57-2.57.96-3.54,1.5-.2.11-.69.21-.31.53ZM28.32,44.82c-.11-.12-2.75-1.18-3.02-1.19-.66-.02-1.12.36-1.53.83,1.47,1.06,2.45,1.61,4.22.86.23-.1.71-.11.33-.5ZM13.36,57.56c-.24.02-2.54,1.7-2.8,1.98-1.7,1.79.03,3.96.03,6,0,2.55-.64,5.25-.5,7.9.13,2.36.91,8.77,1.55,10.91.19.63,2.8,3.78,3.39,4.28,1.09.93,2.44-.13,3.22-1.05,2.08-2.46-1.78-6.37-2.52-8.75-.4-1.29-.83-6.62-.31-7.73.42-.9,1.54-1.24,1.98-1.86.73-1.03-.16-3.81-.35-5.15s.15-2.22-.44-3.64c-.34-.82-2.42-2.98-3.25-2.9ZM33.64,61.55c-.53-.83.93-3.16-1.94-3.69s-4.31,1.71-6.74,2.41c-.49.41,0,1.75-.59,2.28-.53.48-1.69.03-2.62.5-3.16,1.62-4.12,7.7.97,7.86,1.41.04,4.39-1.14,3.93,1.57-.14.8-2.92,1.42-3.78,2-2.27,1.53-2.93,5.14-2.01,7.61,1.04,2.78,2.45.12,4.16.63,1.26.38.12,1.76.53,2.59.3.61,1.88.84,2.28,1.56,0,.69-3.74,1.67-1.68,2.17.92.23,4.6-1.09,5.41-1.81,6.1-5.46,2.73-10.96,2.52-17.38-.12-3.6,4.22.25,4.31-2.38.04-1.09-2.77-4.61-3.71-5.4-.29-.25-1-.45-1.04-.51ZM33.12,109.03c2.1.06,5.31,2.27,6.85.25s.93-5.45-1.11-6.83c-1.16-.78-4.68-1.67-6.07-1.55-.87.08-2.18.82-2.9.71-.83-.13-.66-1.24-1.25-1.43-.54-.17-2.09.73-3.07.7-2.23-.06-4.86-1.97-7.09-1.08-.38.15-2.01,1.09-2.26,1.33-.98.98-.62,3.1-1.34,3.46-1.12.56-3.32-.73-4.98-.18-.52.17-2.8,1.88-3.19,2.32-1.56,1.74-.99,4.16,1.05,5.21,4.24,2.17,6.75-1.27,10.58-.74,2.57.36,3.98,3.21,5.78,4.78,1.91,1.67,6.08,4.12,8.51,2.5.64-.43.85-1.09,1.33-1.55.55-.54,1.41-.19,1.04-1.26-.54-1.56-6.24-4.83-7.64-6.27-.88-.9-.68-2.13-.05-3.18.56-.92,1.18-.38,2.04-.6,1.89-.49,3.22-.97,5.32-.65,1.77.27,1.06,1.86.15,2.75-.69.68-1.67.55-1.69,1.3ZM33.78,125.39c-2.01.26-5.54,1.37-6.79,3.05-1.5,2.02-.02,2.52.81,4.23,1.11,2.3,1.48,5.35,1.24,7.88-.15,1.54-1.22,3-1.58,4.66-.38,1.78-.15,3.27-.37,4.9-.11.79-.92,1.94-.88,2.38.05.61,2.4,3.43,2.96,3.52.35.06,3.56-.31,3.84-.47.82-.47,4.36-5.68,4.42-6.61.03-.43-.24-.92-.24-1.42.02-4.57.1-10.38.48-14.87.19-2.2,1.34-2.88.11-5.13-.97-1.77-1.99-2.37-4-2.11ZM17.76,139.95c1.27.23,2.52,1.74,3.78,1.87,2.26.24,4.07-3.72,4.11-5.62.01-.65-.71-4.25-1.16-4.54-.35-.22-1-.01-1.45-.23s-1.51-2.18-2.46-2.58c-3-1.24-2.88,2.18-3.74,3.81-.27.52-1.16,1.89-1.82,1.74-1.12-.26-1.18-5.58-4.29-4.96-3.77.75-3.84,6.91-2.62,9.7.58,1.35,4.39,5.49,5.74,5.77,2.98.61,4.29-2.45,3.91-4.97Z"/>
  <path d="M33.64,61.55c.04.06.75.27,1.04.51.94.79,3.75,4.31,3.71,5.4-.1,2.63-4.43-1.21-4.31,2.38.21,6.42,3.58,11.92-2.52,17.38-.81.72-4.48,2.04-5.41,1.81-2.06-.5,1.68-1.49,1.68-2.17-.4-.72-1.98-.95-2.28-1.56-.41-.83.73-2.21-.53-2.59-1.71-.52-3.12,2.15-4.16-.63-.92-2.46-.26-6.08,2.01-7.61.86-.58,3.64-1.2,3.78-2,.46-2.71-2.52-1.52-3.93-1.57-5.08-.16-4.13-6.24-.97-7.86.92-.47,2.09-.03,2.62-.5.59-.54.1-1.87.59-2.28,2.43-.7,4-2.91,6.74-2.41s1.41,2.86,1.94,3.69ZM26.81,77.43c-1.46.39-.5,2.13.62,1.86,1.21-.29.25-2.09-.62-1.86Z"/>
  <path d="M33.12,109.03c.02-.75,1.01-.63,1.69-1.3.91-.9,1.62-2.48-.15-2.75-2.1-.32-3.43.16-5.32.65-.86.22-1.48-.32-2.04.6-.63,1.05-.83,2.28.05,3.18,1.4,1.44,7.1,4.71,7.64,6.27.37,1.07-.49.72-1.04,1.26-.47.46-.68,1.12-1.33,1.55-2.43,1.62-6.61-.83-8.51-2.5-1.79-1.57-3.21-4.42-5.78-4.78-3.83-.54-6.35,2.91-10.58.74-2.04-1.04-2.6-3.46-1.05-5.21.39-.44,2.68-2.15,3.19-2.32,1.66-.55,3.86.73,4.98.18.72-.36.36-2.47,1.34-3.46.25-.25,1.88-1.18,2.26-1.33,2.23-.89,4.86,1.03,7.09,1.08.97.02,2.53-.88,3.07-.7.58.19.42,1.3,1.25,1.43.73.11,2.03-.63,2.9-.71,1.4-.12,4.91.77,6.07,1.55,2.04,1.37,2.6,4.88,1.11,6.83s-4.75-.19-6.85-.25ZM24,103.05c-.61.1-2.42-1.02-2.41.12,0,1.32,2.14,1.35,2.41-.12Z"/>
  <path d="M28.08,1.92c.13-.13-.22-1.06.79-.92s2.52,1.83,2.73,1.86c.29.04.52-.37.75-.42.92-.2,2.35,2,2.94,2.26.3.13.48-.51.96-.28.94.46,1.81,2.7,2.16,2.91.29.17.64-.27,1.07.09.74.64.99,2.55,1.1,2.64.22.19.95-.35,1.31,0,.77.73.86,2.96,1.2,3.38.29.37.92.06,1.1.39.1.17.41,2.04.44,2.39.03.45-.33.99-.2,1.38.15.46.99.3,1.16.78.24.66-.28,1.47-.24,2.13.03.56.48.87.52,1.43.07,1.04-.97,2.73-.96,2.89.02.22.68.37.83.6.45.67-1.39,3.2-2.05,3.71.15.52,1.44.12,1.19.72-.23.54-1.84,2-2.4,2.4l.11.36c2.57,1.02-1.59,2.22-1.55,2.99.01.21.72.28.73.49.11,1.42-3.5,2.7-4.11,3.34-.36.38.02.64-.04.93-.24,1.04-6.17,2.07-7.27,2.08-.53,0-4.14-.3-3.24-1.22,1.94.34,3.64.26,5.57-.07.28-.05,4.36-.91,3.55-1.6-.29-.26-6.55,1.84-7.68,1.2-.07-.34.02-.39.26-.58.55-.43,4.99-.87,6.22-1.21.58-.16,3.67-1.33,3.84-1.68.22-.46-.3-.36-.58-.34-1.25.12-3.99,1.43-5.66,1.78-.24.05-2.26.68-1.92,0,.46-.93,7.86-1.78,8.64-3.36.21-.43-.26-.39-.55-.31-1.91.53-3.78,2.12-5.93,1.75.82-1.25,2.27-1.1,3.42-1.61,1.09-.48,4.8-2.42,5.21-3.42.18-.44-.25-.41-.55-.31-.85.3-5.46,4.03-6.17,3.3.26-1.77,3.06-2.31,4.54-3.26,1.31-.84,2.82-2.21,3.72-3.47.12-.17,1.45-2.05.5-1.65-.23.1-2.58,2.95-3.37,3.59-1,.8-2.67,2.09-3.95,2.05.44-2.06,1.61-2.02,2.95-3.04,2.25-1.71,4.35-4.09,4.96-6.9-1.87,2.57-3.29,5.71-6.48,6.95-.14-2.17,2.36-3.33,3.56-4.95.67-.91,2.2-3.98,2.41-5.02.11-.53-.54-.4-.67-.31-.08.05-.3,1.26-.45,1.59-.92,2.02-2.17,4.46-4.12,5.59-.33-1.7.93-2.2,1.64-3.28,1.56-2.35,2.74-4.83,2.68-7.75-.69-.12-.4.15-.51.55-.51,1.78-.59,3.23-1.52,4.96-.15.27-1.63,2.63-2.04,2.15-.24-2.41,1.65-3.58,2.28-5.99.19-.76.73-3.6.59-4.17-.04-.14-.25-.42-.47-.26-.38.28-.58,6.55-2.28,7.31-1.08-1.18.22-2.43.53-3.54.39-1.36.65-2.83.54-4.24-.02-.27-.37-2.69-.95-2.04-.25.28.95,6.25-.96,7.19-.93-1.94.11-3.54,0-5.63-.02-.36-.69-5.01-1.43-4.2-.2.22.41,1.84.45,2.3.1,1.02.15,2.13.2,3.16.02.45.21.67-.3,1-1.26-1.21-.68-2.84-.9-4.37-.17-1.2-1.57-4.21-2.57-4.86-.35-.23-.63-.16-.48.24.28.73,1.42,1.82,1.86,2.94.23.58.46,1.23.54,1.86.03.25.18,1.33-.24,1.32-1.38-1.91-2.96-7.19-5.41-7.9-.3-.09-.48.06-.35.35.38.89,2.79,2.05,2.76,3.47-1.33-1.2-3.08-3.12-4.92-3.23.2.59,5.11,3.69,4.56,4.19-1.12-.06-2.16-.52-3.1-1.09-.52-.31-.95-1.39-1.69-.94,1.13,1.13,2.1,2.39,3.78,2.7.71.13,1.66-.1,2.23.17.29.14,2.13,2.77,1.92,3-2.45-.34-4.43-1.42-6.35-2.88-.15-.11-2.16-2.28-1.8-1.08s4.21,3.72,5.46,4.13c2.19.73,4.02.01,4.37,3.18-4.91.12-7.8-2.24-10.2-6.23-1.09.08.69,1.62.36,1.91-.74-.07-1.6.23-2.29-.23-.62-.41.09-.62.08-1.04,0-.55-.78-1.42-.69-1.93.04-.24.71-.29.74-.51.01-.11-.8-1.32-.74-2.16.04-.57.74-.36.75-.94,0-.41-1.52-3.05-.18-2.97.65.04,3.62,1.54,3.77,1.4Z"/>
  <path d="M19.44,41.22c.26.85-.55.89-1.32.96-1.87.16-4.25.07-6.06-.41-.44-.12-2.72-.95-2.94-1.14-.39-.34-.08-1-.47-1.45-.17-.19-1.41-.69-1.86-1.02-.28-.21-1.89-1.42-1.95-1.52-.28-.49.59-.92.35-1.4-.19-.37-1.78-1.48-2.3-1.69-.33-.48,1.19-1.02,1.19-1.31,0-.19-2.57-1.89-2.63-2.64,2.17-.45.84-.76.28-1.72-.18-.3-1.25-2.23-1.23-2.36.03-.34.92-.27.97-.49.13-.61-1.18-2.9-.99-3.78.06-.25.62-.24.72-.55s-.53-2.41-.21-2.72c.1-.1,1.02.14,1.16-.39.11-.42-.52-2.81.14-3.71.24-.33,1-.14,1.23-.45s.28-2.41.85-3.23c.54-.76,1.08.01,1.43-.24.26-.19.68-2.58,1.43-2.92.28-.13.45.41.72.28.33-.16,1.91-2.84,2.18-3,.33-.18.91.45,1.06.44.2-.02,1.72-2.69,3.09-2.39.19.04.06.65.5.49.76-.28,3.19-3.59,3.84-.96,1.18-.78,2.55-1.28,3.96-1.43.49.77-.71,2.78-.69,3,.02.27.87.32.92.93.05.56-.64,1.61-.61,1.93.01.2.38.5.41.96.06.92-.82,1.64-.27,2.76l-2.64.24c.21-.17,1.48-2.23.6-2.15-.22.02-2.13,3.06-2.64,3.59-2.02,2.12-4.75,2.65-7.56,2.87.17-3.11,1.65-2.39,3.79-3.04,2.38-.72,4.4-2.47,6.05-4.27.1-.58-.43-.4-.72-.24-.51.29-1.12,1.23-1.7,1.66-1.45,1.07-3.48,2.21-5.31,2.38-.17.02-.68.21-.67-.2,0-.16,1.77-2.56,1.92-2.63.52-.28,1.53-.05,2.22-.18,1.29-.24,3.69-1.75,3.66-3.06-1.05,1.18-2.32,1.84-3.86,2.14-.37.07-.44.46-.82-.11l4.79-3.83c-.39-.63-.82.01-1.27.17l-3.77,2.83c.32-1.48,1.84-2.1,2.63-3,.2-.23.46-.62.13-.83-3.49,1.56-3.73,5.5-6,8.14-.21-2.35,1.11-4.57,2.52-6.35-.57-.5-1.44.94-1.73,1.38-1.64,2.49-1.05,3.22-1.41,5.79-.06.41-1,3.11-1.18,1.7-.07-.58-.05-1.56,0-2.17.05-.85.74-3.24.72-3.59,0-.15-.3-.47-.59-.12-1.59,1.9-.18,8.87-.84,9.34-.62.25-1.2-1.78-1.2-2.04v-4.31c0-.19.26-.66-.12-.84-1.07,1.8-.72,4.84-.07,6.77.41,1.21,1.42,1.76.66,3.29-1.99-.69-2.02-6.73-2.4-7.19-.31-.39-.44.03-.48.36-.18,1.35.21,3.09.67,4.36.7,1.95,2.59,3.43,1.96,5.59-1.42-1.12-2.31-2.99-2.86-4.69-.08-.25-.55-3.71-1.21-2.98-.24.26,1.07,4.74,1.39,5.44.94,2.01,2.92,3.13,3.17,5.34-.62.62-3.14-3.2-3.4-3.67-.37-.68-1.14-3.09-1.52-3.27-.32-.16-.39.07-.36.35.12.97,1.81,4.13,2.44,5,1.22,1.67,3.56,2.69,3.56,4.95-3.18-1.23-4.64-4.43-6.48-6.95.43,2.91,2.7,5.18,4.96,6.9,1.29.99,2.63,1,2.71,3.16-.31.33-4.69-2.88-5.17-3.34-.66-.64-1.5-2.6-2.51-2.29,1.44,2.25,3.14,3.99,5.45,5.35,1.17.69,3.5,1.16,3.91,2.57.25.85-2.27-.42-2.56-.56-1.1-.55-2.76-2.06-3.6-2.4-.29-.12-.73-.12-.56.32.24.59,2.74,2.21,3.43,2.57,1.64.84,3.91,1.02,4.97,2.47-1.39.52-5.21-2.04-6.12-1.8-.21-.03-.15.45-.12.48.08.1,2.01,1.02,2.34,1.15.99.4,5.92,1.42,6.07,1.86.05.13-.04.4-.01.59-1.84-.37-3.62-.84-5.4-1.43-.81-.27-2.58-1.5-2.52-.25,1.49.54,2.91,1.25,4.46,1.66,1.66.44,3.71.43,5.15.85.27.08.66.31.71.61h-3.72c-.86,0-2.82-1.27-3.96-.96-.67.56,3.46,1.68,3.72,1.68h5.4Z"/>
  <path d="M33.78,125.39c2.01-.26,3.03.33,4,2.11,1.23,2.25.07,2.93-.11,5.13-.38,4.5-.46,10.31-.48,14.87,0,.5.27.99.24,1.42-.06.93-3.59,6.15-4.42,6.61-.28.16-3.49.53-3.84.47-.56-.09-2.91-2.9-2.96-3.52-.04-.44.78-1.59.88-2.38.22-1.63-.01-3.12.37-4.9.36-1.65,1.43-3.12,1.58-4.66.24-2.53-.13-5.58-1.24-7.88-.83-1.72-2.31-2.21-.81-4.23,1.24-1.68,4.78-2.79,6.79-3.05ZM32.8,133.27c-.23.02-.89.47-1,.69-.66,1.33.71,1.54,1.32,2.28s2.28,4.99,2.79,2.28c.09-.46-.86-2.86-1.1-3.01-.4-.26-1.29.07-1.59-.33-.35-.47.64-1.99-.42-1.9ZM33.06,138.98c0-.37-.3-.66-.66-.66s-.66.3-.66.66.3.66.66.66.66-.3.66-.66ZM32.63,140.29l-.96.99.75.73.96-.99-.75-.73ZM35.28,142.35c-.96-.32-1.31.45-1.87.66-.43.16-1.11.06-1.38.28-1.29,1.06.18,2.96,1.06,2.39.07-.05.34-1.27.63-1.65.42-.56,1.4-.77,1.56-1.68Z"/>
  <path d="M17.76,139.95c.38,2.52-.93,5.59-3.91,4.97-1.35-.28-5.16-4.42-5.74-5.77-1.21-2.79-1.14-8.95,2.62-9.7,3.1-.61,3.17,4.7,4.29,4.96.66.15,1.55-1.22,1.82-1.74.86-1.64.73-5.06,3.74-3.81.95.39,2.02,2.37,2.46,2.58.46.21,1.1,0,1.45.23.45.29,1.18,3.88,1.16,4.54-.04,1.9-1.85,5.86-4.11,5.62-1.26-.14-2.51-1.64-3.78-1.87ZM17.28,136.83c-1.1,0-.62,1.15-.12,1.67l.12-1.67Z"/>
  <path d="M13.36,57.56c.83-.08,2.91,2.08,3.25,2.9.59,1.42.25,2.34.44,3.64s1.08,4.12.35,5.15c-.44.61-1.56.96-1.98,1.86-.52,1.11-.09,6.44.31,7.73.74,2.38,4.6,6.3,2.52,8.75-.78.92-2.14,1.99-3.22,1.05-.59-.51-3.2-3.66-3.39-4.28-.64-2.14-1.42-8.55-1.55-10.91-.14-2.65.5-5.35.5-7.9,0-2.04-1.72-4.21-.03-6,.26-.28,2.57-1.96,2.8-1.98Z"/>
  <path d="M33.28,15.66c1.41,1.47.37,2.84.6,3.82.09.39.98.94,1.27,1.38,1.64,2.51-.41,5.1-3.33,4.76-.48-.06-6.17-1.88-6.34-2.17-.86-1.4,1.92-.75,1.88-1.88l-2.4.48c0-.26-.19-.48-.12-.74.08-.33,3.57-5.27,3.95-5.62,1.19-1.08,3.35-1.22,4.49-.03Z"/>
  <path d="M23.52,25.52c.43-1.5,1.96,1.52,2.4,1.08.25-.25-1.46-1.9-.96-2.39.25-.25,5.96,1.49,6.71,1.8,2.68,1.11,2.67,4.7,0,5.74-.51.2-1.64.27-1.92.48-.49.38-.05,1.78-1.85,2.47-1.31.5-2.56.4-3.56-.66-.16-.16-.83-1.25-.83-1.33,0-1.49-.3-6.16,0-7.19Z"/>
  <path d="M20.4,26.6c.53.53,1.54-2.3,2.28-1.2.18.27.42,5.92.33,6.57-.37,2.69-3.55,4.2-5.51,1.95-.43-.49-.68-1.54-.94-1.7-.38-.22-1.17-.07-1.7-.22-2.53-.68-2.93-4.44-.63-5.7.59-.32,6.4-2.18,6.74-2.09,1.22.32-.86,2.09-.57,2.38Z"/>
  <path d="M21.36,21.81l-2.4-.24c-.04,1.14,2.75.48,1.88,1.88-.18.29-5.97,2.13-6.56,2.19-1.88.18-3.57-.76-3.71-2.79s1.9-2.93,1.93-3.12c.17-1.09-1.08-1.66.17-3.61,1.15-1.79,3.45-1.64,4.86-.19.49.5,3.48,4.44,3.7,4.93.14.32.17.6.13.95Z"/>
  <path d="M23.52,20.85c-.14-.13.27-1.55-.24-2.04-.85-.82-.33,1.9-.48,2.04-.09.08-.74,0-.96-.12-.29-.16-3.66-4.9-3.89-5.46-1.21-2.95,1.46-5.25,4.3-4.05.34.15.77.72.91.73.16,0,.85-.75,1.26-.86,3.16-.82,5.35,1.68,3.86,4.57-.21.4-3.45,4.75-3.69,4.95-.27.21-.92.39-1.07.25Z"/>
  <path d="M18,45.29c-.38-.33.11-.42.31-.53.97-.54,2.41-.92,3.54-1.5.58-.3,4.07-2.87,4.31-1.68.09.44-3.92,3.31-4.56,3.59-.71.31-3.14.52-3.6.12Z"/>
  <path d="M26.64,40.74c-.08.08-.76-.03-.97-.1-1.19-.44-2.01-3.69-1.9-4.93,1.05.61.87-.3,1.31-.25,1.25.15.72,1.91.87,2.74.08.46.8,2.44.69,2.54Z"/>
  <path d="M21.86,35.93c.11.06.61-.32.7-.22.15,1.84-.41,4.82-2.64,5.03-.07-1,.52-1.84.7-2.78.11-.59-.28-2.86.86-2.73.21.02.31.66.38.7Z"/>
  <circle cx="23.15" cy="23.04" r="1.53"/>
  <path d="M19.88,35.98c.38.6-.31,4.24-1.04,4.25-1.83-1.05-1.08-1.21-.66-2.79.17-.64-.24-1.64.66-1.75.19-.02.97.17,1.04.29Z"/>
  <path d="M29.28,38.58c-.28-2.16-1.03-3.27.96-4.79.33,1.69,1.89,4.77-.96,4.79Z"/>
  <path d="M28.08,35.7c-.19,1.78,1.82,3.91-.59,4.56-.23-.05-.78-1.51-.83-1.82-.22-1.46-.4-2.92,1.42-2.74Z"/>
  <path d="M16.08,33.79c1.68.88,1.7,2.51,1.18,4.18-.28.92-.86.62-1.44.03-1.14-1.19.5-2.75.25-4.21Z"/>
  <path d="M9.61,28.99c-.07-.05-.44-1.47-.44-1.61,0-.49,1.65-1.56,2.09-1.63.51-.08,1.74.48,1.23,1.21-.32.46-2.32,2.43-2.88,2.02Z"/>
  <path d="M33.87,26.39c.06-.1,1.02-.53,1.27-.52,1.13.05,2.96,1.63,1.7,2.89-.78.78-3.32-1.75-2.97-2.37Z"/>
  <path d="M31.11,32.86c2.26-.67,2.52,3.43.92,3.8-.57.13-1.21-2.88-1.23-3.34,0-.28,0-.37.3-.46Z"/>
  <path d="M15.6,32.83c.21.2-.51,2.84-.66,3.31-.08.24.04.72-.42.53-1.3-.54-1.29-2.73-.63-3.69.23-.33,1.29-.06,1.71-.14Z"/>
  <path d="M28.32,44.82c.38.39-.1.4-.33.5-1.77.74-2.75.2-4.22-.86.41-.47.87-.85,1.53-.83.27.01,2.91,1.07,3.02,1.19Z"/>
  <path d="M12.24,15.1c.26,1.27-2.82,3.15-3.11,2.01-.44-1.72,1.75-2.33,3.11-2.01Z"/>
  <path d="M34.32,15.1c.09-.09,2.29.27,2.41.35.22.14,1.07,1.98.14,2.03-1.32.07-2.61-1.02-2.55-2.38Z"/>
  <path d="M12,28.52c-.02,1.42.48,2.58-.84,3.59-1.3-1.7-1.31-2.81.84-3.59Z"/>
  <path d="M35.52,32.11c-.37.34-1.12-1.16-1.15-1.37-.09-.57.41-1.53.2-2.23.79.39,1.81.97,1.64,1.98-.01.09-.62,1.56-.69,1.62Z"/>
  <path d="M11.28,17.73c.43,1.99-1.18,1.87-2.64,2.16-.2-1.91,1.05-1.99,2.64-2.16Z"/>
  <path d="M37.68,19.89c-1.21-.25-3.23-.21-2.53-1.93,1.33-.27,3.01.19,2.53,1.93Z"/>
  <path d="M37.68,26.36l-1.9-.74c.49-3.08,2.71-2.17,1.9.74Z"/>
  <path d="M33.6,34.51c-.27-.2-1.23-3.19.35-3.11,1.52.58.36,3.64-.35,3.11Z"/>
  <path d="M12.27,31.43c1.89-.07,1.08,2.1.33,3.08-.89-.97-1.14-1.96-.33-3.08Z"/>
  <path d="M10.06,23.74l.72,1.54c-.02.27-1.67,1.03-1.89.83-.32-1.32-.57-2.39,1.18-2.38Z"/>
  <path d="M10.32,20.13c-.47,1.05-.12,3.25-1.68,3.11l.03-2.61,1.65-.51Z"/>
  <path d="M37.92,23.24c-1.94.17-.77-1.79-1.92-2.87l1.81.47.11,2.4Z"/>
  <path d="M20.54,41.23c.84-.25,2.71,1.15,1.06,1.57-.69.18-1.99-1.3-1.06-1.57Z"/>
  <path d="M16.8,14.38c-.06.06-1.26-.06-1.2-.47l1.2-.48v.96Z"/>
  <path d="M30.72,13.9c.07.09-.26.44-.37.46-.92.23-1.45-1.28.37-.46Z"/>
  <path class="st0" d="M26.81,77.43c.87-.23,1.83,1.56.62,1.86-1.12.27-2.08-1.47-.62-1.86Z"/>
  <path class="st0" d="M24,103.05c-.27,1.47-2.4,1.44-2.41.12,0-1.14,1.8-.01,2.41-.12Z"/>
  <path class="st0" d="M32.8,133.27c1.06-.09.07,1.43.42,1.9.3.41,1.19.07,1.59.33.23.15,1.18,2.55,1.1,3.01-.51,2.71-2.18-1.54-2.79-2.28s-1.98-.95-1.32-2.28c.11-.22.77-.67,1-.69Z"/>
  <path class="st0" d="M35.28,142.35c-.16.91-1.14,1.12-1.56,1.68-.29.38-.55,1.6-.63,1.65-.89.57-2.36-1.33-1.06-2.39.27-.22.95-.12,1.38-.28.56-.21.91-.99,1.87-.66Z"/>
  <circle class="st0" cx="32.4" cy="138.98" r=".66"/>
  <polygon class="st0" points="32.63 140.29 33.38 141.01 32.41 142 31.66 141.28 32.63 140.29"/>
  <path class="st0" d="M17.28,136.83l-.12,1.67c-.5-.53-.98-1.68.12-1.67Z"/>
</svg>