<?xml version="1.0" encoding="UTF-8"?>
<svg id="Layer_1" xmlns="http://www.w3.org/2000/svg" version="1.1" viewBox="0 0 46.56 101.28">
  <!-- Generator: Adobe Illustrator 29.5.1, SVG Export Plug-In . SVG Version: 2.1.0 Build 141)  -->
  <defs>
    <style>
      .st0 {
        fill: #2d2d2d;
      }

      .st1 {
        fill: none;
      }
    </style>
  </defs>
  <path class="st1" d="M46.56,0v101.28H0V0h46.56ZM13.36,1.95c-.24.03-2.5,1.69-2.81,1.99-1.66,1.58-.06,3.9.02,5.75.07,1.61-.43,3.87-.5,5.51-.19,4.45,1.17,9.11,1.56,13.55.19.68,2.73,3.64,3.38,4.29.61.61,1.1.59,1.78.12.77-.53,2.11-1.66,2.17-2.63.04-.64-.63-2.24-.92-2.91-.91-2.12-2.49-3.77-2.69-6.17-.06-.78.06-1.62.01-2.41-.05-.89-.37-1.55-.23-2.61.25-1.91,2.15-2.11,2.52-3.23.3-.92-.45-3.33-.6-4.46-.21-1.68.25-3.05-.87-4.64-.35-.5-2.31-2.19-2.83-2.13v-.02ZM33.63,5.96c-.31-.42.54-2.64-.99-3.44-2.2-1.14-4.04.37-5.83,1.36-.45.25-1.97.76-2.06,1.06-.16.55.16,1.7-.5,2.14-.49.32-1.6-.11-2.5.38-.3.17-1.63,1.46-1.84,1.76-.57.82-.85,2.85-.7,3.83.22,1.45,2.21,2.2,3.5,2.28,1.04.07,3.59-.97,3.88.65.35,1.93-1.02,1.62-2.43,2.26-1.67.77-2.56,1.45-3.22,3.25-.61,1.68-.67,3.1-.13,4.8.98,3.08,2.48.29,4.23.81,1.1.33.39,1.36.38,2-.03,1.25,1.82,1.25,2.42,2.15-.59.87-1.64,1.02-2.4,1.68,0,.14.66.52.87.55.33.04,3.27-.76,3.75-.96,1.93-.78,4.27-4.4,4.91-6.35,1.04-3.19-.62-8.48-.91-11.9-.25-3.03,2.11-.96,3.45-1.36.29-.09.89-.73.89-1.04,0-.25-1.65-3.23-1.92-3.6-.35-.46-1.46-1.55-1.93-1.9-.27-.2-.9-.35-.93-.39v-.02ZM33.12,53.39l5.39,1.2c3.18-1.12,2.87-6.02.36-7.77-1.05-.74-4.81-1.69-6.09-1.55-.87.1-2.14.81-2.89.71-.8-.1-.69-1.26-1.23-1.43-.58-.18-2.09.75-3.09.71-1.65-.05-4.17-1.37-5.78-1.45-.42-.02-1.07.24-1.47.43-.34.16-1.77.95-1.98,1.13-1.12.96-.7,3.22-1.44,3.59-1.09.54-3.33-.68-4.81-.25-.6.17-3.03,1.99-3.48,2.52-1.43,1.68-.77,4.13,1.16,5.08,4.33,2.13,6.72-1.26,10.6-.75,2.55.33,4.08,3.37,5.89,4.9,1.52,1.29,5.04,3.27,7.03,2.94,1.74-.3,1.73-1.25,2.68-2.11.6-.54,1.39-.2,1.05-1.27-.09-.27-1.43-1.54-1.76-1.83-1.73-1.53-4.33-2.89-5.89-4.42-.94-.92-.62-2.07-.04-3.17.46-.88,1.17-.45,2.04-.6.63-.11,1.33-.57,1.98-.66.82-.11,3.88-.18,4.32.46.49.71-.7,2.36-1.34,2.75-.11.07-1.76.46-1.19.85h-.02ZM33.78,69.73c-.94.13-3.82.93-4.67,1.33s-2.56,1.84-2.7,2.81c-.21,1.44.3,1.23.82,2.04,1.59,2.46,2.05,6.1,1.82,8.98-.12,1.5-1.28,3.14-1.63,4.84s-.11,3.17-.31,4.72c-.1.73-.95,2.01-.91,2.37.11,1,1.95,2.34,2.47,3.28.67.56,1.45.04,2.17-.02.55-.05,1.17.09,1.69,0,.74-.12,2.46-2.55,2.96-3.28.44-.65,1.93-2.95,1.97-3.56.02-.39-.24-.77-.25-1.18-.12-2.98.31-5.31.49-8.14s-.36-5.95.29-8.81c.07-.3.32-.54.38-.82.26-1.12-.46-2.46-1.16-3.31-1.06-1.28-1.75-1.49-3.42-1.26h-.01ZM17.76,84.28c1.45.3,3.02,2.28,4.57,1.81,1.01-.31,2.1-1.77,2.57-2.71.75-1.51.85-3.28.49-4.92-.08-.35-.75-2.36-.89-2.46-.35-.24-1,.02-1.46-.22-.28-.14-.55-.79-.83-1.09-.88-.97-1.65-1.92-3.08-1.62-1.82.37-1.5,2.46-2.28,3.95-.27.52-1.18,1.89-1.83,1.74-1.07-.24-1.24-5.65-4.29-4.97-3.69.82-3.84,6.72-2.68,9.53.58,1.4,3.44,4.49,4.69,5.38,3.09,2.2,5.66-1.41,5.03-4.42h-.01Z"/>
  <path class="st0" d="M33.63,5.96s.66.19.93.39c.47.36,1.58,1.44,1.93,1.9.28.36,1.92,3.34,1.92,3.6,0,.31-.59.95-.89,1.04-1.34.4-3.7-1.67-3.45,1.36.28,3.43,1.94,8.72.91,11.9-.64,1.96-2.98,5.58-4.91,6.35-.49.2-3.42.99-3.75.96-.21-.02-.87-.41-.87-.55.76-.66,1.8-.81,2.4-1.68-.6-.9-2.45-.9-2.42-2.15.02-.64.72-1.67-.38-2-1.75-.52-3.25,2.27-4.23-.81-.54-1.7-.48-3.13.13-4.8.66-1.81,1.54-2.49,3.22-3.25,1.41-.64,2.78-.33,2.43-2.26-.29-1.62-2.84-.58-3.88-.65-1.29-.08-3.28-.83-3.5-2.28-.15-.98.14-3.01.7-3.83.21-.3,1.54-1.59,1.84-1.76.89-.49,2.01-.06,2.5-.38.66-.43.34-1.58.5-2.14.09-.3,1.6-.81,2.06-1.06,1.79-.98,3.63-2.5,5.83-1.36,1.53.8.69,3.02.99,3.44v.02ZM26.79,21.81c-.16.05-.83.7-.83.81.15.55.87,1.23,1.48,1.06,1.21-.35.19-2.12-.64-1.87h-.01Z"/>
  <path class="st0" d="M33.12,53.39c-.57-.39,1.08-.78,1.19-.85.65-.4,1.83-2.04,1.34-2.75-.44-.64-3.5-.56-4.32-.46-.66.09-1.35.55-1.98.66-.88.15-1.58-.28-2.04.6-.58,1.11-.89,2.26.04,3.17,1.56,1.53,4.16,2.89,5.89,4.42.33.29,1.68,1.56,1.76,1.83.34,1.07-.45.73-1.05,1.27-.95.86-.94,1.82-2.68,2.11-2,.34-5.51-1.64-7.03-2.94-1.81-1.54-3.34-4.57-5.89-4.9-3.88-.51-6.27,2.89-10.6.75-1.93-.95-2.59-3.4-1.16-5.08.45-.52,2.87-2.34,3.48-2.52,1.49-.43,3.73.79,4.81.25.74-.37.32-2.63,1.44-3.59.21-.18,1.64-.97,1.98-1.13.39-.19,1.04-.45,1.47-.43,1.62.08,4.13,1.39,5.78,1.45,1,.03,2.51-.89,3.09-.71.54.17.43,1.33,1.23,1.43s2.02-.62,2.89-.71c1.28-.14,5.04.81,6.09,1.55,2.51,1.76,2.82,6.65-.36,7.77l-5.39-1.2h.02ZM24,47.41c-.69.08-2.43-1.01-2.41.12,0,.37.71,1.08,1.08,1.08.73,0,1.01-.66,1.33-1.2Z"/>
  <path class="st0" d="M33.78,69.73c1.67-.23,2.36-.02,3.42,1.26.7.85,1.42,2.19,1.16,3.31-.06.28-.31.52-.38.82-.65,2.87-.09,5.9-.29,8.81s-.61,5.17-.49,8.14c.02.41.28.79.25,1.18-.04.61-1.53,2.92-1.97,3.56-.49.73-2.22,3.15-2.96,3.28-.51.09-1.14-.05-1.69,0-.72.06-1.49.58-2.17.02-.52-.94-2.35-2.28-2.47-3.28-.04-.36.81-1.64.91-2.37.2-1.55-.04-3.03.31-4.72s1.51-3.34,1.63-4.84c.23-2.88-.23-6.52-1.82-8.98-.53-.81-1.04-.6-.82-2.04.14-.97,1.85-2.4,2.7-2.81s3.72-1.2,4.67-1.33h.01ZM32.79,77.6c-.2.03-.89.49-.99.69-.66,1.28.69,1.57,1.33,2.28.72.8.99,2.01,1.57,2.74.72.91,1.17.27,1.27-.65.03-.29-1.02-2.74-1.14-2.83-.46-.32-1.65.26-1.71-.7-.02-.36.66-1.68-.32-1.53h-.01ZM32.3,82.61c-.94.21-.5,1.57.19,1.42.94-.21.5-1.57-.19-1.42ZM32.54,84.77l-.86.83c.74.99,1,.49,1.68-.24l-.81-.59h0ZM35.28,86.68c-1.02-.32-1.26.42-1.85.67-.4.17-1.15.05-1.39.27-1.06.92-.34,2.69,1.07,2.4.08-1.76,1.57-2,2.17-3.34Z"/>
  <path class="st0" d="M17.76,84.28c.63,3.01-1.94,6.62-5.03,4.42-1.25-.89-4.11-3.98-4.69-5.38-1.16-2.81-1.01-8.71,2.68-9.53,3.05-.68,3.23,4.73,4.29,4.97.65.15,1.55-1.23,1.83-1.74.79-1.49.46-3.58,2.28-3.95,1.43-.29,2.2.66,3.08,1.62.27.3.55.95.83,1.09.47.24,1.12-.02,1.46.22.14.1.82,2.11.89,2.46.36,1.64.26,3.41-.49,4.92-.47.93-1.56,2.4-2.57,2.71-1.55.47-3.12-1.51-4.57-1.81h0ZM17.28,81.17c-1.1,0-.62,1.11-.12,1.67l.12-1.67Z"/>
  <path class="st0" d="M13.36,1.95c.52-.06,2.48,1.63,2.83,2.13,1.12,1.59.65,2.96.87,4.64.14,1.13.9,3.54.6,4.46-.37,1.13-2.27,1.32-2.52,3.23-.14,1.06.18,1.73.23,2.61.04.79-.08,1.63-.01,2.41.2,2.41,1.78,4.05,2.69,6.17.29.67.96,2.26.92,2.91-.06.97-1.41,2.1-2.17,2.63-.68.47-1.17.49-1.78-.12-.65-.65-3.19-3.6-3.38-4.29-.39-4.44-1.74-9.1-1.56-13.55.07-1.64.57-3.9.5-5.51-.08-1.85-1.68-4.17-.02-5.75.31-.3,2.56-1.96,2.81-1.99v.02Z"/>
  <path class="st1" d="M26.79,21.81c.84-.25,1.86,1.52.64,1.87-.61.17-1.32-.51-1.48-1.06,0-.11.67-.76.83-.81h.01Z"/>
  <path class="st1" d="M24,47.41c-.31.54-.6,1.19-1.33,1.2-.37,0-1.08-.71-1.08-1.08-.02-1.14,1.72-.04,2.41-.12Z"/>
  <path class="st1" d="M32.79,77.6c.97-.15.29,1.17.32,1.53.06.97,1.25.38,1.71.7.13.09,1.17,2.54,1.14,2.83-.1.92-.55,1.56-1.27.65-.58-.73-.85-1.94-1.57-2.74-.64-.71-1.99-1-1.33-2.28.1-.2.79-.66.99-.69h.01Z"/>
  <path class="st1" d="M35.28,86.68c-.61,1.34-2.09,1.58-2.17,3.34-1.41.29-2.13-1.49-1.07-2.4.25-.21.99-.1,1.39-.27.59-.25.84-.99,1.85-.67Z"/>
  <path class="st1" d="M32.3,82.61c.7-.15,1.13,1.21.19,1.42-.7.15-1.13-1.21-.19-1.42Z"/>
  <path class="st1" d="M32.54,84.77l.81.59c-.68.73-.93,1.23-1.68.24l.86-.83h0Z"/>
  <path class="st1" d="M17.28,81.17l-.12,1.67c-.5-.56-.98-1.68.12-1.67Z"/>
</svg>