<?xml version="1.0" encoding="UTF-8"?>
<svg id="Layer_1" xmlns="http://www.w3.org/2000/svg" version="1.1" viewBox="0 0 145.5 147.75">
  <!-- Generator: Adobe Illustrator 29.5.1, SVG Export Plug-In . SVG Version: 2.1.0 Build 141)  -->
  <defs>
    <style>
      .st0 {
        fill: #2d2d2d;
      }

      .st1 {
        fill: none;
      }
    </style>
  </defs>
  <path class="st1" d="M145.5,0v147.75H0V0h145.5ZM69.5,11.88c-.71-.95,2.4-7.47,2.05-9.2-.77-3.83-12.13,3.27-13.26,2.48-.2-.14-.49-1.6-1.17-2.24-2.42-2.28-8.53,4.81-10.11,5.76-.68.41-1.55-1.06-2.64-1.2-3.76-.48-6.23,5.36-8.56,6.43-1.14.52-2.38-.77-3.71-.09-1.74.89-5.3,8.07-6.71,9.1-.81.59-1.26-.99-1.87-1-2.25-.04-4.42,9.26-4.86,9.59-.38.28-1.88-.74-2.66-.73-3.69.03-3.63,10.05-4.72,11.54-.61.84-2.22.21-3.09.77-2.16,1.4-.97,9.71-1.42,11.97-.16.79-2.87-.23-3.46,3.42-.35,2.21,1.53,4.96,1.11,6.33-.35,1.15-2.28.61-2.25,2.3.05,2.52,3.19,9.49,2.96,10.46s-2.05,1.24-2.59,1.94c-1.53,1.99,6.43,10.72,6.38,11.64-.08,1.6-4.63.37-3.71,2.24,1.04,2.11,8.19,6.95,8.19,7.51,0,.68-4.05,1.98-3.69,3.68.32,1.5,8.46,5.47,7.41,7.17-.1.16-3.08.37-1.54,2.66.42.62,5.52,4.76,6.54,5.48,1.46,1.04,5.99,2.9,6.18,3.19.38.56-.52,1.89-.44,2.59.23,2.23,12.05,5.83,14.47,6.16,3.65.5,14.79.72,17.9-.38,1.94-.68,1.38-2.96-1.3-2.87-8.3.3-13.89,1.02-22.05-1.79-.58-.2-5.52-1.78-4.07-3.03.92-.79,21.66,5.84,23.87,3.74.45-.43-.23-1.37-.77-1.84-1.53-1.37-13.78-2.69-17.3-3.61-1.76-.46-13.54-4.47-14.01-5.05-.71-.85-.09-1.58,1.13-1.52,3.04.15,11.25,4.02,15.12,5.06,2.82.76,6.21,1.83,9.11,1.34-.81-1.13-1.07-2.09-2.43-2.81-3.25-1.72-11.31-2.52-15.87-4.3-2.87-1.12-6.89-2.66-8.56-5.26l1.71.15,17.32,6.59c1.05-4.77-7.42-5.6-10.82-7.13-5.48-2.47-11.34-5.55-14.93-10.49.57-1.04,1.94-.12,2.64.35,4.85,3.26,7.95,6.33,13.79,8.64.88.35,5.14,2.37,4.45.03-1.3-4.42-10.18-6.92-13.94-9.24-3.42-2.12-13.35-11.21-14.37-14.81-.37-1.33.9-1.52,1.45-1.08.22.18,2.09,3.81,3.02,4.85,3.57,4.01,8.51,8.09,13.18,10.75,3.04,1.73,6.62,4.56,5.1-.63-1.36-4.65-5.39-5.09-8.85-7.61-5.72-4.16-12.75-12.18-14.51-19.16-.43-1.69-.23-2.41.95-.95,6.05,7.47,6.02,14.59,16.58,20.09,2.9,1.51,2.9,1.28,2.12-2.13-1.05-4.59-6.71-7.36-9.68-11.27-1.7-2.24-8.34-14.59-8.64-16.82-.19-1.37.85-1.65,1.48-1.11.26.21,1.79,5.13,2.35,6.27,1.91,3.89,6.42,12.5,9.93,14.76,4.45,2.88,1.93-3.39.56-5.82-2.61-4.61-6.29-6.49-8.73-12.98-.68-1.8-3.53-12-3.37-13.11.08-.52,1.28-1.59,1.88-.4.82,1.64.84,5.38,1.47,7.52,1.26,4.25,3.01,8.07,5.43,11.78,1.58,2.42,3.78,6.69,4.71,1.34.35-3.88-4.77-9.61-6.39-13.9s-2.91-9.84-2.62-14.63c.07-1.22.64-2.11,1.49-1.11.13.15-.06,3.02.09,4.03.5,3.4,1.16,7.19,2.32,10.42.37,1.02,3.22,7.78,3.57,8.04.44.33,1.5-.13,1.87-.74,2.02-3.38-1.85-8.17-2.85-11.41-1.85-6.03-1.52-12.46-.52-18.61,1.6-.06,1.4-.33,1.49,1.11.18,3.1-.75,5.53-.7,8.15.08,3.94,1.7,9.6,3.31,13.23,4.08-4.16,1.53-7.98,1.13-12.37-.53-5.81.52-13.27,3.36-18.37,1.09,3.33-.81,6.8-1.12,10.13-.24,2.66-.14,6.28,0,9.01.06,1.18.48,1.95,1.48,1.11.23-.2,1.95-5.09,2.07-5.8.42-2.49-.07-4.92.18-7.32.59-5.8,4.38-12.21,8.58-16.13,1.12,1.61-1.65,3.54-2.49,5-2.53,4.41-5.19,10.08-4.23,15.24,6.41-6.16,7.09-16.33,13.8-22.13,1.16-1,3.64-3.32,5.23-2.25-2.55,3.58-9.23,6.69-8.58,11.62,4.1-4.32,8.71-8.76,14.55-10.49l-3.38,3.72c-2.61,2.22-6.1,4.09-8.57,6.39-.59.55-2.99,2.68-2.22,3.38.3.28,6.8-1.77,7.85-2.23,2.42-1.07,3.33-2.29,5.2-3.77.56-.44,2.18-1.87,1.5,0-3.45,3.79-6.89,7.07-12.11,8.08-1.97.38-4.6-.27-6.18.54-.45.23-5.74,7.71-5.95,8.27-.57,1.49.76,1.15,1.7.96,11-2.21,13.1-5.66,21.06-11.84,2.87-2.23,3.81-1.61,1.52,1.53-2.76,3.79-10.52,8.85-14.94,10.48-2.68.98-10.58,2.12-11.63,3.31-.71.79-2.82,6.56-2.19,7.17,1.02.99,12.6-2.03,14.69-2.86,8.93-3.56,11.22-9.67,17.04-16.63,1.48-.24,1.37.3.74,1.49-.35.66-2.94,4.22-2.61,4.5.24.2,5.51.16,6.34,0,3.11-.57,1.16-2.41,1.34-4.03.15-1.41,1.87-3.5,1.72-5.37-.1-1.32-1.63-2.2-1.68-2.98-.07-1,2.24-3.93,2.04-6.01-.18-1.85-1.81-1.49-2.17-1.98v.04ZM122.37,44.62c.43-3.17,0-7.84,0-11.25,0-.4-1.44-2.59-.74-3.37,2.23-2.49,3.04,8.98,3,10.1-.07,1.66-.7,5.51-1.1,7.18-.66,2.79-3.78,7.84-3.93,9.43-.19,1.93.96,5.98,2.83,3.57,1.01-1.3,3.41-7.59,3.9-9.44.54-2.06,1.02-4.85,1.27-6.98.13-1.18-.21-5.38,0-5.62.33-.36,1.88.21,2.01,1.09.06.39-.46,6.51-.59,7.46-.66,4.71-2.86,10.13-5.27,14.2-.72,1.21-2.39,2.15-2.72,3.26-.72,2.41-.82,8.71,2.44,5.45,2.09-2.1,5.44-8.64,6.41-11.56.3-.91,2.52-13.1,3.69-11.66,1.09,1.34-2.57,13.96-3.58,16.27-2.18,4.99-7.82,9.74-9.28,13.17-2.11,4.97-.8,6.73,3.19,2.45,3.28-3.53,6.62-8.72,8.55-13.16.63-1.45,1.66-6.47,1.88-6.74.36-.43,2.19.59,2.22,1.12.04.78-5.89,12.57-6.85,14.11-3.09,4.99-7.52,7.14-10.2,10.75-.55.74-2.59,6.05-2.34,6.27.58.51,2.48-.5,3.23-.87,4.95-2.4,10.56-9.54,13.5-14.18.55-.87,4.73-9.55,4.17-5.56-.77,5.48-10.16,16.5-14.68,19.74-1.96,1.4-5.2,2.55-6.61,3.86-.83.77-3.83,6.3-3.33,6.77,1.18,1.1,9.2-4.33,10.68-5.38,4.77-3.41,7.23-6.43,10.97-10.76.55-.64.67-1.79.74-1.85.5-.42,1.96-.16,1.47,1.11-1.03,2.68-7.65,9.57-10.08,11.62-6.56,5.51-14.42,6.36-19,13.15,7.19.23,14.26-5.85,19.78-10.12,1.22-.63,1.39.85,1.03,1.79-.46,1.19-8.19,6.45-9.85,7.34-3.81,2.04-14.72,4.38-16.18,7.74-.43,1,.07,1.22,1.02,1.03,2.25-.45,5.86-1.59,8.09-2.38,3-1.05,6.82-3.57,9.18-4.28,1.93-.58,1.06,1.29,0,2.24-5.57,4.98-15.97,4.59-22.02,7.12-2.05.85-5.05,3.84-1.2,3.31,7.89-1.09,15.4-5.61,21.77-6.63,2.28-.37,2.3.03.69,1.45-6.18,5.44-20.49,5.91-28.18,7.68-1.56.36-5.9,2.66-2.42,2.83,4.56.22,8.65-.22,13.1-1.1,3.05-.61,6.4-2.29,9.35-2.61,1.37-.15,1.63.78,1.07,1.45-.73.88-10.54,3.39-12.39,3.68s-5.73.83-7.41.87c-1.9.05-11.22-2.73-8.22,1.51.4.56,5.53,1.37,6.76,1.45,4.52.29,11.63-.71,16.07-1.84,1.23-.31,9.33-3.03,9.62-3.46.58-.83-.78-3.08-.36-3.74.95-1.45,10.63-4.9,12.74-8.97,1.04-2-.76-2.39-1.05-3.51-.48-1.83,6.97-5.05,7.2-6.59.3-2.02-2.37-2.1-3.11-2.59-1.89-1.23.91-1.81,1.81-2.63,1.29-1.18,4.8-4.6,5.18-6.08.49-1.9-3.46-.72-2.95-2.96.22-.96,5.47-5.2,5.85-9.2.27-2.84-2.23-1.66-2.2-3.54.05-3.19,3.2-5.8,2.29-10.49-.23-1.18-1.36-1.99-1.47-3.06-.18-1.8,1.82-5.2.41-7.14-.64-.88-2.99-.6-3.35-1.92-.23-.82.8-3.39.73-5.13-.04-.95-1.09-6.23-1.44-6.72-.63-.91-2.75-.05-3.49-1.14-1.05-1.56-1.2-10.53-4.53-11.1-.72-.12-1.83.76-2.54.26-.76-.54-3.29-8.32-3.76-8.66-.75-.55-3.19,1.06-3.65.71-.23-.18-1.68-3.84-2.71-5.18-.77-1.01-4.05-4.72-5.02-4.46-.65.17-1.32,1.29-1.64,1.29-.61.01-6.54-8.11-9.51-7.3-.69.19-1.97,1.94-2.75,1.37-.1-.07-.23-1.26-1.25-2.11-1.49-1.24-7.61-5.2-9.17-3.8-.16.14-.22,2.95-1.18,2.92-.19,0-1.92-1.58-3.15-2.07-1.33-.53-8.55-3.06-9.16-2.41-1.58,1.67,2.51,8.43,2.3,10.04-.09.66-1.57.64-1.92,1.18-1.8,2.77,1.18,5.53,1.1,7.16-.05,1.13-1.38,1.82-1.44,2.97-.1,1.72,1.95,4.09,1.93,5.29-.01.71-1.78,3.04-.4,4.04.3.22,7.11.32,7.38.06s-4.13-8.74-.76-5.99c.08.06.22,1.18.75,1.84,8.04,9.93,10.68,15.86,25.07,17.58,4.01.48,6.35,1.25,4.94-2.71-2.88-8.04-8.82-5.21-15.6-8.32-3.18-1.46-13.12-8.82-14.4-11.77-.38-.88.22-1.49,1.1-1.11,1.04.45,4.15,4.37,5.67,5.56,2.31,1.82,16.83,9.73,18.59,7.93.77-.79-4.54-8.39-5.54-9.05-1.93-1.27-4.36-.48-6.59-.87-5.05-.9-9.17-4.81-12.48-8.46.79-1.27,1.63.34,2.23.76,1.72,1.2,3.36,2.86,5.22,3.76s11.07,3.43,6.97-.41c-3.74-3.51-9.25-6.29-12.92-10.11-.48-2.6,4.58,1.18,5.16,1.57,1.3.88,9.34,8.28,9.75,7.81,1.93-2.2-8.4-9.62-8.94-10.88-.38-.9.2-1.46,1.1-1.11,1.43.56,6.41,5.35,7.43,6.79,3.89,5.51,4.71,13.34,10.11,17.95.92-3.38-.64-6.76-1.66-9.95l-5.43-10.29c4.73,3.3,8.61,11.23,9.26,16.94.28,2.45-.23,5.05.11,7.38.08.51,1.31,4.71,1.46,4.92,2.38,3.34,2.22-7.57,2.15-8.54-.15-2.06-2.51-10.54-2.15-10.96.79-.93,1.94.98,2.3,1.81.96,2.22,2.06,10.32,2.04,12.81-.04,5.24-2.78,10.03.14,15.37,1.79-1.03,3.47-6,3.72-7.87h-.03ZM73.87,65.25c.23.26,2.85.04,3.41-.7,2.91-5.53,13.05-14.52,13.07-20.67.03-7.06-5.94-11.42-12.61-9.61-1.72.47-4.09,2.49-4.99,2.49-1.07,0-4.18-2.78-6.8-2.98-7.92-.6-12.64,7-9.61,14.22.77,1.83,12.04,17.22,13.04,17.65,3.52,1.51,2.14-5.21,2.28-5.99.12-.65,1.21-1.58,1.84-.42.9,1.63,0,5.6.36,6.01h.01ZM52.97,42c-.68-.69-5.47,2.09-2.58,2.97,3.12.95,3.33-2.21,2.58-2.97ZM96.25,45c.95-.94-2.88-4.23-3.72-1.86-1,2.81,3.52,2.06,3.72,1.86ZM59.69,67.51c3.36.09,9.84,3.7,6.77-2.69-.6-1.26-10.71-15.26-11.61-16.08-5.96-5.41-16.85-1.36-16.82,7.14,0,1.83,1.59,4.06,1.38,5.15-.29,1.48-5.21,4.22-5.8,8.4-.89,6.3,4.35,11.74,10.59,11.44,2.65-1.39,20.63-6.37,21.36-7.46,2.51-3.75-4.94-3.23-5.87-5.9ZM109.43,64c-.82-.92-2.99-1.43-3.37-3.02-.29-1.22.99-4.71.59-7.31-1.01-6.67-9.62-9.29-14.84-6.01-2.05,1.29-11.72,14.75-13.2,17.48-3.46,6.38,3.94,2.35,7.2,2.37-.26,2.48-5.54,2.49-5.91,3.05-.65.96-.05,2.94,1.19,3.57,2.49,1.27,15.22,5.5,17.96,5.95,10.47,1.7,17.06-8.58,10.4-16.07h-.02ZM38.8,47.25c-.27-.26-6.64-.15-7.48.35-.98.59-2.65,5.28-1.88,6.41.94,1.38,4.85.05,6.03-.74,1-.67,3.95-5.43,3.32-6.03h0ZM117.14,54.75c.3-.29-1.29-5.5-2.26-6.35-1.23-1.1-6.87-1.7-7.44-1.14-.72.71,1.65,5.26,2.58,6.03,1.16.95,6.37,2.17,7.12,1.47h0ZM35.78,55.53c-.47-.44-6.59.99-7.26,1.64-.73.71-1.27,4.72-.91,5.08.62.62,8.47-1.52,8.8-3.46.05-.27-.51-3.14-.63-3.25h0ZM109.69,55.5c-.31.34-.19,4.13.73,4.89.48.4,5.12,1.79,6.18,2.05.76.19,1.82.78,2.03-.58.07-.47-.99-4.02-1.47-4.5-.81-.82-7.06-2.31-7.47-1.86ZM32.83,63c-.23-.25-4.8,1.24-5.28,1.99-1.88,2.91-.52,11.27,3.42,6.26-.34-1.51,2.29-7.79,1.86-8.25ZM118.63,72.75c.76-1.2.68-6.06-.4-7.47-.67-.87-5.19-2.65-5.56-2.28-.32.34,3.04,7.32,2.57,9.03.39.9,3.27.88,3.38.72h.01ZM77.67,72.21c0-2.75-2.21-4.97-4.95-4.97s-4.95,2.23-4.95,4.97,2.21,4.97,4.95,4.97,4.95-2.23,4.95-4.97ZM27.71,75.11c-.75,1.11.04,6.12,1.37,7.07.62.45,4.49-1.85,4.92-2.68.52-1-1.17-4.45-1.9-4.91-.96-.6-3.95-.13-4.39.52ZM117.89,82.5c.18-.26.88-5.58.66-6.25-.37-1.14-2.78-2.27-3.9-1.94s-3.28,5.05-2.68,5.89c.19.26,5.65,2.7,5.92,2.31h0ZM67.15,75.75c-.33-.33-2.94.16-3.76.34-3.62.77-14.19,4.17-17.41,5.75-6.3,3.1-8.04,11.44-3.02,16.35,3.41,3.34,7.75,1.53,9.31,2.64,1.84,1.31.79,7.16,7.97,8.49,16.42,3.04,11.81-19.77,11.28-29.34-2.56-4.64-5.65,4.86-7.35,3.25-.3-.28,4.42-6.04,2.98-7.49h0ZM73.87,79.88v22.5c0,1.62,3.45,5.44,5.02,6.21,3.91,1.91,9.39,1.06,12.16-2.44,1.1-1.39,2.08-5.36,2.34-5.53.48-.32,4.9-.52,6.6-1.24,7.29-3.06,7.19-14,.28-17.53-2.49-1.27-17.74-6.15-20.08-6.13-6.1.04,1.92,6.81,1.15,7.53-1.29,1.21-6.1-8.14-7.46-3.37h0ZM30.65,90.68c2.31,1.63,9.85-6.91,9.64-7.8-.15-.66-3.88-2.64-4.73-2.49-1.08.19-6.42,4.14-6.44,5.44-.01.47,1.32,4.7,1.53,4.85ZM115.62,90.71c.23-.2,1.69-5.17,1.19-5.96-.2-.32-5.84-4.04-6.32-4.16-1.44-.38-5.45,1.72-4.18,4.16.85,1.65,7.45,7.58,9.3,5.96h0ZM38.05,89.25c-.56-.61-5.6,3.05-5.82,4.22-.21,1.08,2.48,7.02,3.21,7.01.38,0,3.07-3.61,3.22-4.28.08-.34-.38-6.69-.61-6.95ZM108.2,89.25c-.24.26-.82,6.63-.76,7.07.13,1.01,2.16,4.47,3.36,4.18s2.85-4.92,2.65-6.34-4.49-5.74-5.25-4.91ZM41.03,108c.23-.27,2-6.46,1.91-6.81-1.36-5.47-6.65-1.88-6.24,1.82.1.91,3.38,6.11,4.33,4.99ZM105.22,108c1.48,1.13,4.62-3.92,3.15-7.31-1.78-4.12-5.35-1.45-5.39.91,0,.34,1.97,6.19,2.24,6.39h0ZM49.21,102.78c-.16-.12-3.8-.7-4-.66-1.4.26-3.35,6.96-3.06,8.22.27,1.15,4.15,6.51,4.86,3.9.49-1.81,3.19-10.71,2.2-11.46ZM102.16,102.82c-.5-.43-5.54-.4-5.84,1.11-.14.69,2.58,10.65,3.3,10.81,1.12.25,3.96-2.97,4.12-4.16.11-.78-1.28-7.51-1.58-7.77h0ZM53.72,121.5c.43-.33,2.26-10.2,2.13-10.73-.17-.66-4.22-6-5.1-5.02.51,3.32-2.67,7.93-2.27,10.84.24,1.74,4.72,5.3,5.24,4.91h0ZM94.39,105.76c-.35,0-4.05,5.05-4.13,5.65-.18,1.36,1.43,9.99,2.63,10.07.8.05,4.77-3.47,4.81-4.81.03-1.06-2.63-10.92-3.31-10.91ZM66.88,110.32c-2.76.51-1.79,6.25-2.14,8.38s-1.73,4.57-2.26,6.75c-.19.78-.8,1.76.58,2.05,5.5,1.17,9.42-13.58,8.26-15.02-.21-.26-4.2-2.2-4.45-2.16h0ZM83.57,127.5c.42-.42-1.94-7.16-2.16-8.7-.32-2.25.94-8.67-2.7-8.38-.64.05-1.19,1.41-1.82,1.69-1.6.71-3.07-2.59-2.07,4.32.43,2.98,2.33,9.22,5.22,10.5.78.34,3.15.95,3.54.56h-.01ZM60.43,126c.27-.2,2.07-5.57,2.19-6.43.25-1.8.66-7.13-1.16-7.71-5.27-1.69-3.62,1.26-4.2,4.58-.27,1.53-2.03,5.58-1.94,6.08.21,1.16,4.27,4.09,5.1,3.48h.01ZM85.6,111.88c-2.37.47-2.88,1.7-2.81,3.96.1,3.09,2.37,14.34,6.8,8.34,1.7-2.3-.23-4.03-.64-6.22-.54-2.91,1.11-6.96-3.35-6.08ZM64.62,129.05c-3.41,1.02,3.05,7.93,5.18,3.71,1.1-2.19-3.4-4.24-5.18-3.71ZM82.08,129c-1.78-1.72-9.21,3.88-11.18,4.89-2.79,1.44-5.62,2.9-8.46,4.24-.62.29-7.57,2.13-5.73,3.61,1.34,1.08,8.27.86,10.24.18,1.3-.45,14.53-9.28,14.96-10.08.3-.54.26-2.75.16-2.84h0ZM88.79,141.75c1.66-1.38-7.62-5.09-8.64-5.23-1.74-.23-5.5,1.01-5.53,2.61-.01.81,6.7,4.03,7.87,4.11.5.04,6.04-1.28,6.29-1.49h0Z"/>
  <path class="st0" d="M69.5,11.88c.37.49,1.99.13,2.17,1.98.21,2.08-2.11,5.01-2.04,6.01.06.77,1.58,1.66,1.68,2.98.15,1.88-1.56,3.96-1.72,5.37-.17,1.61,1.77,3.46-1.34,4.03-.83.15-6.1.2-6.34,0-.33-.27,2.26-3.83,2.61-4.5.63-1.19.74-1.73-.74-1.49-5.82,6.96-8.1,13.07-17.04,16.63-2.08.83-13.66,3.85-14.69,2.86-.63-.61,1.48-6.38,2.19-7.17,1.06-1.19,8.95-2.32,11.63-3.31,4.43-1.63,12.18-6.69,14.94-10.48,2.29-3.14,1.35-3.76-1.52-1.53-7.96,6.17-10.06,9.63-21.06,11.84-.94.19-2.26.53-1.7-.96.21-.56,5.5-8.04,5.95-8.27,1.58-.81,4.21-.16,6.18-.54,5.23-1.01,8.66-4.29,12.11-8.08.68-1.88-.94-.44-1.5,0-1.87,1.48-2.78,2.71-5.2,3.77-1.05.46-7.55,2.5-7.85,2.23-.77-.7,1.63-2.83,2.22-3.38,2.47-2.29,5.95-4.17,8.57-6.39l3.38-3.72c-5.84,1.73-10.45,6.18-14.55,10.49-.65-4.93,6.03-8.05,8.58-11.62-1.59-1.08-4.07,1.24-5.23,2.25-6.71,5.8-7.38,15.97-13.8,22.13-.95-5.16,1.7-10.83,4.23-15.24.84-1.46,3.61-3.39,2.49-5-4.2,3.91-7.99,10.33-8.58,16.13-.25,2.41.25,4.83-.18,7.32-.12.71-1.84,5.6-2.07,5.8-1,.84-1.42.07-1.48-1.11-.13-2.72-.24-6.34,0-9.01.3-3.33,2.21-6.8,1.12-10.13-2.83,5.1-3.89,12.56-3.36,18.37.4,4.4,2.95,8.22-1.13,12.37-1.61-3.64-3.23-9.3-3.31-13.23-.05-2.62.88-5.05.7-8.15-.09-1.44.11-1.18-1.49-1.11-1,6.14-1.34,12.57.52,18.61.99,3.24,4.87,8.03,2.85,11.41-.36.6-1.42,1.06-1.87.74-.35-.26-3.21-7.02-3.57-8.04-1.16-3.23-1.81-7.02-2.32-10.42-.15-1.01.04-3.88-.09-4.03-.85-1-1.42-.11-1.49,1.11-.28,4.79.94,10.18,2.62,14.63s6.74,10.02,6.39,13.9c-.93,5.34-3.13,1.08-4.71-1.34-2.42-3.71-4.17-7.53-5.43-11.78-.64-2.14-.65-5.89-1.47-7.52-.6-1.19-1.8-.12-1.88.4-.16,1.11,2.69,11.31,3.37,13.11,2.44,6.49,6.12,8.36,8.73,12.98,1.37,2.42,3.89,8.69-.56,5.82-3.51-2.27-8.02-10.88-9.93-14.76-.56-1.14-2.1-6.05-2.35-6.27-.64-.54-1.67-.26-1.48,1.11.3,2.23,6.95,14.58,8.64,16.82,2.97,3.92,8.63,6.69,9.68,11.27.78,3.41.78,3.64-2.12,2.13-10.56-5.5-10.53-12.61-16.58-20.09-1.18-1.45-1.38-.74-.95.95,1.77,6.98,8.8,15,14.51,19.16,3.46,2.51,7.49,2.96,8.85,7.61,1.52,5.18-2.06,2.36-5.1.63-4.67-2.66-9.62-6.74-13.18-10.75-.93-1.05-2.79-4.67-3.02-4.85-.55-.44-1.82-.25-1.45,1.08,1.02,3.6,10.95,12.69,14.37,14.81,3.76,2.33,12.64,4.82,13.94,9.24.69,2.34-3.57.32-4.45-.03-5.84-2.31-8.94-5.38-13.79-8.64-.7-.47-2.07-1.39-2.64-.35,3.59,4.94,9.45,8.02,14.93,10.49,3.4,1.53,11.87,2.36,10.82,7.13l-17.32-6.59-1.71-.15c1.68,2.6,5.69,4.14,8.56,5.26,4.55,1.78,12.62,2.58,15.87,4.3,1.36.72,1.61,1.68,2.43,2.81-2.9.49-6.29-.58-9.11-1.34-3.87-1.05-12.08-4.91-15.12-5.06-1.22-.06-1.84.67-1.13,1.52.48.57,12.25,4.58,14.01,5.05,3.51.93,15.76,2.24,17.3,3.61.53.48,1.22,1.41.77,1.84-2.21,2.1-22.95-4.54-23.87-3.74-1.45,1.25,3.49,2.83,4.07,3.03,8.16,2.8,13.75,2.08,22.05,1.79,2.68-.1,3.24,2.18,1.3,2.87-3.12,1.1-14.26.87-17.9.38-2.42-.33-14.24-3.93-14.47-6.16-.07-.7.82-2.03.44-2.59-.2-.29-4.73-2.15-6.18-3.19-1.02-.73-6.13-4.86-6.54-5.48-1.54-2.29,1.44-2.5,1.54-2.66,1.05-1.7-7.09-5.66-7.41-7.17-.36-1.7,3.69-3.01,3.69-3.68,0-.56-7.15-5.4-8.19-7.51-.92-1.87,3.62-.63,3.71-2.24.05-.91-7.91-9.65-6.38-11.64.54-.7,2.36-.95,2.59-1.94s-2.92-7.94-2.96-10.46c-.03-1.68,1.9-1.15,2.25-2.3.41-1.36-1.47-4.12-1.11-6.33.59-3.65,3.3-2.62,3.46-3.42.45-2.26-.74-10.57,1.42-11.97.87-.56,2.48.07,3.09-.77,1.08-1.49,1.03-11.51,4.72-11.54.77,0,2.28,1.01,2.66.73.44-.32,2.6-9.63,4.86-9.59.61.01,1.06,1.59,1.87,1,1.41-1.03,4.97-8.2,6.71-9.1,1.33-.68,2.57.61,3.71.09,2.33-1.07,4.8-6.9,8.56-6.43,1.1.14,1.96,1.61,2.64,1.2,1.58-.95,7.7-8.04,10.11-5.76.68.64.97,2.11,1.17,2.24,1.14.79,12.49-6.31,13.26-2.48.35,1.73-2.76,8.25-2.05,9.2v-.04Z"/>
  <path class="st0" d="M122.37,44.62c-.25,1.88-1.94,6.85-3.72,7.87-2.93-5.35-.18-10.13-.14-15.37.02-2.49-1.08-10.59-2.04-12.81-.36-.83-1.5-2.73-2.3-1.81-.36.42,2,8.9,2.15,10.96.07.97.23,11.88-2.15,8.54-.15-.21-1.38-4.4-1.46-4.92-.35-2.34.17-4.93-.11-7.38-.65-5.71-4.53-13.64-9.26-16.94l5.43,10.29c1.02,3.19,2.58,6.56,1.66,9.95-5.4-4.62-6.22-12.44-10.11-17.95-1.02-1.44-6-6.22-7.43-6.79-.9-.36-1.48.21-1.1,1.11.54,1.27,10.87,8.68,8.94,10.88-.41.47-8.45-6.94-9.75-7.81-.58-.39-5.63-4.18-5.16-1.57,3.68,3.82,9.18,6.59,12.92,10.11,4.1,3.85-5.03,1.36-6.97.41s-3.5-2.55-5.22-3.76c-.6-.42-1.44-2.02-2.23-.76,3.31,3.65,7.43,7.56,12.48,8.46,2.23.4,4.66-.39,6.59.87,1,.66,6.32,8.26,5.54,9.05-1.76,1.79-16.28-6.11-18.59-7.93-1.51-1.19-4.63-5.11-5.67-5.56-.88-.38-1.49.23-1.1,1.11,1.29,2.95,11.22,10.31,14.4,11.77,6.77,3.12,12.72.28,15.6,8.32,1.42,3.96-.92,3.19-4.94,2.71-14.4-1.72-17.03-7.65-25.07-17.58-.53-.65-.68-1.77-.75-1.84-3.37-2.75,1.02,5.75.76,5.99-.26.24-7.09.16-7.38-.06-1.37-1,.39-3.33.4-4.04.02-1.2-2.03-3.57-1.93-5.29.07-1.15,1.39-1.84,1.44-2.97.07-1.63-2.91-4.39-1.1-7.16.36-.55,1.84-.52,1.92-1.18.21-1.61-3.88-8.37-2.3-10.04.61-.64,7.83,1.88,9.16,2.41,1.23.49,2.96,2.07,3.15,2.07.96.03,1.02-2.78,1.18-2.92,1.56-1.4,7.68,2.55,9.17,3.8,1.02.85,1.15,2.04,1.25,2.11.79.57,2.06-1.18,2.75-1.37,2.97-.81,8.9,7.31,9.51,7.3.32,0,.99-1.12,1.64-1.29.96-.26,4.25,3.45,5.02,4.46,1.03,1.34,2.47,5,2.71,5.18.46.35,2.9-1.26,3.65-.71.47.34,3,8.12,3.76,8.66.7.5,1.82-.38,2.54-.26,3.33.57,3.48,9.55,4.53,11.1.74,1.1,2.85.24,3.49,1.14.34.49,1.4,5.78,1.44,6.72.07,1.74-.96,4.31-.73,5.13.36,1.32,2.71,1.04,3.35,1.92,1.41,1.94-.59,5.34-.41,7.14.11,1.07,1.24,1.88,1.47,3.06.91,4.69-2.24,7.29-2.29,10.49-.03,1.88,2.47.7,2.2,3.54-.38,3.99-5.64,8.24-5.85,9.2-.5,2.24,3.44,1.06,2.95,2.96-.38,1.48-3.88,4.9-5.18,6.08-.9.82-3.69,1.4-1.81,2.63.74.48,3.42.57,3.11,2.59-.23,1.53-7.67,4.76-7.2,6.59.29,1.13,2.09,1.52,1.05,3.51-2.11,4.07-11.8,7.53-12.74,8.97-.43.65.94,2.9.36,3.74-.29.42-8.4,3.14-9.62,3.46-4.44,1.13-11.55,2.13-16.07,1.84-1.23-.08-6.36-.89-6.76-1.45-3-4.24,6.31-1.46,8.22-1.51,1.68-.04,5.59-.59,7.41-.87s11.66-2.8,12.39-3.68c.56-.67.31-1.6-1.07-1.45-2.95.33-6.3,2.01-9.35,2.61-4.44.88-8.54,1.32-13.1,1.1-3.48-.17.87-2.47,2.42-2.83,7.69-1.77,21.99-2.23,28.18-7.68,1.61-1.42,1.59-1.81-.69-1.45-6.37,1.02-13.87,5.54-21.77,6.63-3.85.53-.85-2.45,1.2-3.31,6.05-2.53,16.44-2.14,22.02-7.12,1.07-.96,1.94-2.82,0-2.24-2.36.71-6.17,3.22-9.18,4.28-2.23.78-5.84,1.92-8.09,2.38-.95.19-1.45-.03-1.02-1.03,1.45-3.37,12.37-5.71,16.18-7.74,1.67-.89,9.4-6.16,9.85-7.34.36-.94.19-2.42-1.03-1.79-5.52,4.27-12.58,10.35-19.78,10.12,4.58-6.78,12.45-7.64,19-13.15,2.43-2.04,9.05-8.94,10.08-11.62.49-1.27-.97-1.52-1.47-1.11-.08.06-.19,1.21-.74,1.85-3.74,4.33-6.2,7.35-10.97,10.76-1.48,1.06-9.5,6.49-10.68,5.38-.5-.47,2.5-5.99,3.33-6.77,1.41-1.31,4.65-2.45,6.61-3.86,4.52-3.24,13.92-14.27,14.68-19.74.56-3.99-3.62,4.69-4.17,5.56-2.94,4.64-8.55,11.78-13.5,14.18-.75.37-2.65,1.38-3.23.87-.25-.22,1.79-5.53,2.34-6.27,2.68-3.61,7.1-5.76,10.2-10.75.95-1.54,6.89-13.32,6.85-14.11-.03-.53-1.86-1.55-2.22-1.12-.22.27-1.25,5.29-1.88,6.74-1.93,4.44-5.26,9.63-8.55,13.16-3.98,4.28-5.3,2.51-3.19-2.45,1.46-3.43,7.1-8.18,9.28-13.17,1.01-2.31,4.67-14.93,3.58-16.27-1.16-1.44-3.38,10.75-3.69,11.66-.97,2.91-4.32,9.46-6.41,11.56-3.25,3.26-3.15-3.04-2.44-5.45.33-1.12,2-2.05,2.72-3.26,2.41-4.08,4.61-9.5,5.27-14.2.13-.96.65-7.08.59-7.46-.13-.88-1.69-1.45-2.01-1.09-.22.24.13,4.43,0,5.62-.24,2.13-.72,4.92-1.27,6.98-.49,1.86-2.89,8.14-3.9,9.44-1.87,2.41-3.02-1.64-2.83-3.57.15-1.59,3.27-6.64,3.93-9.43.4-1.67,1.03-5.52,1.1-7.18.05-1.12-.76-12.59-3-10.1-.7.78.74,2.97.74,3.37,0,3.41.43,8.08,0,11.25h.03Z"/>
  <path class="st0" d="M67.15,75.75c1.44,1.45-3.28,7.21-2.98,7.49,1.69,1.6,4.79-7.89,7.35-3.25.53,9.56,5.13,32.38-11.28,29.34-7.17-1.33-6.13-7.18-7.97-8.49-1.56-1.11-5.9.7-9.31-2.64-5.02-4.92-3.28-13.25,3.02-16.35,3.21-1.58,13.78-4.98,17.41-5.75.83-.18,3.43-.67,3.76-.34h0Z"/>
  <path class="st0" d="M73.87,65.25c-.36-.41.53-4.38-.36-6.01-.64-1.16-1.72-.23-1.84.42-.14.78,1.24,7.5-2.28,5.99-1.01-.43-12.28-15.82-13.04-17.65-3.02-7.22,1.7-14.82,9.61-14.22,2.62.2,5.73,2.98,6.8,2.98.89,0,3.26-2.02,4.99-2.49,6.67-1.81,12.64,2.55,12.61,9.61-.02,6.15-10.16,15.15-13.07,20.67-.56.74-3.18.96-3.41.7h-.01Z"/>
  <path class="st0" d="M109.43,64c6.66,7.49.07,17.77-10.4,16.07-2.73-.44-15.46-4.68-17.96-5.95-1.23-.63-1.83-2.6-1.19-3.57.38-.56,5.65-.57,5.91-3.05-3.26-.01-10.66,4.01-7.2-2.37,1.48-2.73,11.15-16.19,13.2-17.48,5.22-3.28,13.83-.66,14.84,6.01.39,2.6-.89,6.09-.59,7.31.38,1.6,2.56,2.11,3.37,3.02h.02Z"/>
  <path class="st0" d="M59.69,67.51c.93,2.67,8.39,2.16,5.87,5.9-.73,1.09-18.71,6.07-21.36,7.46-6.24.3-11.48-5.14-10.59-11.44.59-4.18,5.51-6.93,5.8-8.4.21-1.08-1.37-3.31-1.38-5.15-.03-8.49,10.87-12.55,16.82-7.14.9.82,11,14.82,11.61,16.08,3.07,6.39-3.41,2.78-6.77,2.69Z"/>
  <path class="st0" d="M73.87,79.88c1.36-4.77,6.17,4.58,7.46,3.37.77-.72-7.25-7.49-1.15-7.53,2.34-.01,17.59,4.86,20.08,6.13,6.92,3.53,7.02,14.47-.28,17.53-1.7.72-6.12.91-6.6,1.24-.25.17-1.24,4.14-2.34,5.53-2.77,3.5-8.25,4.35-12.16,2.44-1.57-.76-5.02-4.58-5.02-6.21v-22.5h0Z"/>
  <path class="st0" d="M82.08,129c.1.1.13,2.3-.16,2.84-.43.79-13.66,9.63-14.96,10.08-1.98.68-8.9.9-10.24-.18-1.84-1.48,5.11-3.32,5.73-3.61,2.84-1.34,5.67-2.8,8.46-4.24,1.96-1.01,9.39-6.61,11.18-4.89h-.01Z"/>
  <path class="st0" d="M83.57,127.5c-.39.38-2.76-.22-3.54-.56-2.89-1.27-4.79-7.51-5.22-10.5-1-6.92.48-3.62,2.07-4.32.63-.28,1.18-1.64,1.82-1.69,3.65-.3,2.39,6.13,2.7,8.38.22,1.54,2.58,8.28,2.16,8.7h.01Z"/>
  <path class="st0" d="M66.88,110.32c.25-.05,4.24,1.9,4.45,2.16,1.16,1.44-2.76,16.19-8.26,15.02-1.37-.29-.76-1.27-.58-2.05.53-2.18,1.91-4.67,2.26-6.75s-.62-7.87,2.14-8.38h0Z"/>
  <ellipse class="st0" cx="72.72" cy="72.21" rx="4.95" ry="4.97"/>
  <path class="st0" d="M85.6,111.88c4.47-.89,2.81,3.17,3.35,6.08.41,2.19,2.34,3.92.64,6.22-4.43,6-6.71-5.25-6.8-8.34-.07-2.26.44-3.49,2.81-3.96Z"/>
  <path class="st0" d="M60.43,126c-.83.61-4.89-2.33-5.1-3.48-.09-.5,1.67-4.56,1.94-6.08.58-3.32-1.07-6.28,4.2-4.58,1.82.59,1.41,5.91,1.16,7.71-.12.86-1.91,6.23-2.19,6.43h-.01Z"/>
  <path class="st0" d="M94.39,105.76c.68-.01,3.35,9.85,3.31,10.91-.04,1.35-4.01,4.87-4.81,4.81-1.21-.08-2.81-8.71-2.63-10.07.08-.6,3.78-5.64,4.13-5.65Z"/>
  <path class="st0" d="M53.72,121.5c-.52.39-5-3.16-5.24-4.91-.4-2.91,2.78-7.52,2.27-10.84.88-.98,4.94,4.35,5.1,5.02.13.53-1.7,10.4-2.13,10.73Z"/>
  <path class="st0" d="M115.62,90.71c-1.85,1.62-8.45-4.32-9.3-5.96-1.27-2.45,2.74-4.54,4.18-4.16.48.13,6.11,3.84,6.32,4.16.5.79-.96,5.76-1.19,5.96h0Z"/>
  <path class="st0" d="M30.65,90.68c-.21-.15-1.54-4.37-1.53-4.85.03-1.31,5.36-5.25,6.44-5.44.85-.15,4.57,1.84,4.73,2.49.2.88-7.33,9.43-9.64,7.8Z"/>
  <path class="st0" d="M49.21,102.78c.99.75-1.71,9.65-2.2,11.46-.7,2.61-4.59-2.75-4.86-3.9-.3-1.26,1.65-7.96,3.06-8.22.2-.04,3.84.54,4,.66Z"/>
  <path class="st0" d="M102.16,102.82c.3.26,1.69,6.99,1.58,7.77-.16,1.19-2.99,4.41-4.12,4.16-.73-.16-3.44-10.12-3.3-10.81.3-1.51,5.34-1.55,5.84-1.11h0Z"/>
  <path class="st0" d="M88.79,141.75c-.25.21-5.79,1.53-6.29,1.49-1.17-.08-7.88-3.3-7.87-4.11.02-1.6,3.79-2.84,5.53-2.61,1.01.14,10.3,3.85,8.64,5.23h0Z"/>
  <path class="st0" d="M117.14,54.75c-.74.7-5.96-.51-7.12-1.47-.93-.77-3.3-5.32-2.58-6.03.57-.56,6.21.04,7.44,1.14.96.86,2.56,6.06,2.26,6.35h0Z"/>
  <path class="st0" d="M38.8,47.25c.63.6-2.32,5.36-3.32,6.03-1.18.79-5.09,2.11-6.03.74-.77-1.13.9-5.82,1.88-6.41.84-.51,7.2-.61,7.48-.35h0Z"/>
  <path class="st0" d="M38.05,89.25c.23.26.69,6.61.61,6.95-.15.67-2.84,4.28-3.22,4.28-.73,0-3.42-5.93-3.21-7.01.22-1.17,5.27-4.83,5.82-4.22Z"/>
  <path class="st0" d="M108.2,89.25c.76-.83,5.04,3.46,5.25,4.91s-1.49,6.06-2.65,6.34-3.23-3.17-3.36-4.18c-.06-.43.52-6.81.76-7.07Z"/>
  <path class="st0" d="M109.69,55.5c.41-.45,6.66,1.03,7.47,1.86.48.48,1.55,4.04,1.47,4.5-.22,1.36-1.28.77-2.03.58-1.06-.26-5.7-1.65-6.18-2.05-.91-.76-1.04-4.55-.73-4.89Z"/>
  <path class="st0" d="M35.78,55.53c.12.11.68,2.99.63,3.25-.33,1.94-8.17,4.08-8.8,3.46-.36-.36.18-4.37.91-5.08.67-.65,6.78-2.07,7.26-1.64h0Z"/>
  <path class="st0" d="M117.89,82.5c-.27.39-5.73-2.05-5.92-2.31-.61-.84,1.54-5.56,2.68-5.89s3.53.8,3.9,1.94c.22.67-.48,5.99-.66,6.25h0Z"/>
  <path class="st0" d="M27.71,75.11c.44-.65,3.43-1.12,4.39-.52.73.46,2.42,3.9,1.9,4.91-.43.83-4.3,3.13-4.92,2.68-1.33-.95-2.12-5.97-1.37-7.07Z"/>
  <path class="st0" d="M41.03,108c-.95,1.13-4.22-4.08-4.33-4.99-.41-3.7,4.88-7.29,6.24-1.82.09.34-1.68,6.54-1.91,6.81Z"/>
  <path class="st0" d="M118.63,72.75c-.11.17-2.99.19-3.38-.72.46-1.71-2.9-8.69-2.57-9.03.36-.38,4.89,1.4,5.56,2.28,1.08,1.41,1.16,6.27.4,7.47h-.01Z"/>
  <path class="st0" d="M32.83,63c.43.45-2.2,6.73-1.86,8.25-3.94,5.01-5.3-3.35-3.42-6.26.48-.74,5.05-2.23,5.28-1.99Z"/>
  <path class="st0" d="M105.22,108c-.27-.2-2.24-6.05-2.24-6.39.04-2.36,3.61-5.03,5.39-.91,1.46,3.38-1.67,8.43-3.15,7.31h0Z"/>
  <path class="st0" d="M64.62,129.05c1.78-.53,6.28,1.52,5.18,3.71-2.12,4.22-8.59-2.68-5.18-3.71Z"/>
  <path class="st0" d="M96.25,45c-.2.2-4.72.94-3.72-1.86.84-2.37,4.67.92,3.72,1.86Z"/>
  <path class="st0" d="M52.97,42c.75.76.54,3.91-2.58,2.97-2.89-.88,1.9-3.65,2.58-2.97Z"/>
</svg>