<?xml version="1.0" encoding="UTF-8"?>
<svg id="Text" xmlns="http://www.w3.org/2000/svg" version="1.1" viewBox="0 0 160 160">
  <!-- Generator: Adobe Illustrator 29.4.0, SVG Export Plug-In . SVG Version: 2.1.0 Build 152)  -->
  <path d="M1.77,103.14l5.47-12.5c5.21,3.51,12.61,5.91,19.42,5.91s9.59-1.97,9.59-4.88c0-9.5-33.47-2.57-33.47-24.83,0-10.7,8.58-19.44,26.07-19.44,7.65,0,15.56,1.8,21.36,5.22l-5.13,12.59c-5.63-3.08-11.18-4.62-16.31-4.62-6.98,0-9.5,2.4-9.5,5.39,0,9.16,33.38,2.31,33.38,24.4,0,10.45-8.58,19.35-26.07,19.35-9.67,0-19.26-2.65-24.81-6.59Z"/>
  <path d="M76.94,61.7v13.19h25.98v13.1h-25.98v20.55h-16.65v-59.93h46.17v13.1h-29.52Z"/>
  <path d="M114.28,48.6h16.65v46.49h28.09v13.44h-44.74v-59.93Z"/>
</svg>