<?xml version="1.0" encoding="UTF-8"?>
<svg id="Layer_1" xmlns="http://www.w3.org/2000/svg" version="1.1" viewBox="0 0 600 200">
  <!-- Generator: Adobe Illustrator 29.4.0, SVG Export Plug-In . SVG Version: 2.1.0 Build 152)  -->
  <defs>
    <style>
      .st0 {
        fill: #fff;
      }
    </style>
  </defs>
  <g>
    <rect class="st0" x="11" y="11" width="578" height="178"/>
    <path d="M578,22v156H22V22h556M600,0H0v200h600V0h0Z"/>
  </g>
  <g>
    <path d="M153.78,121.9l10.24-21.48c9.76,6.03,23.62,10.15,36.38,10.15s17.95-3.38,17.95-8.39c0-16.33-62.68-4.41-62.68-42.67,0-18.39,16.06-33.4,48.82-33.4,14.33,0,29.14,3.09,40,8.97l-9.61,21.63c-10.55-5.3-20.95-7.94-30.55-7.94-13.07,0-17.8,4.12-17.8,9.27,0,15.74,62.52,3.97,62.52,41.93,0,17.95-16.06,33.25-48.82,33.25-18.11,0-36.06-4.56-46.46-11.33Z"/>
    <path d="M294.57,50.69v22.66h48.66v22.51h-48.66v35.31h-31.18V28.18h86.46v22.51h-55.28Z"/>
    <path d="M364.49,28.18h31.18v79.89h52.6v23.1h-83.78V28.18Z"/>
  </g>
  <g>
    <path d="M74.13,164.59l3.19-6.21c3.05,1.74,7.37,2.93,11.35,2.93s5.6-.98,5.6-2.42c0-4.72-19.56-1.27-19.56-12.32,0-5.31,5.01-9.65,15.24-9.65,4.47,0,9.09.89,12.48,2.59l-3,6.25c-3.29-1.53-6.54-2.29-9.54-2.29-4.08,0-5.55,1.19-5.55,2.68,0,4.55,19.51,1.15,19.51,12.11,0,5.18-5.01,9.6-15.24,9.6-5.65,0-11.25-1.32-14.5-3.27Z"/>
    <path d="M137.72,155.75c0,7.31-5.85,11.9-13.07,11.9-3.1,0-5.6-.81-7.42-2.42v10.28h-9.34v-31.28h8.9v2.29c1.77-1.83,4.37-2.68,7.86-2.68,7.22,0,13.07,4.59,13.07,11.9ZM128.29,155.75c0-3.48-2.46-5.48-5.6-5.48s-5.6,2-5.6,5.48,2.46,5.48,5.6,5.48,5.6-2,5.6-5.48Z"/>
    <path d="M166.42,154.48v12.79h-8.7v-2.97c-1.33,2.21-3.98,3.36-7.86,3.36-6.39,0-9.93-3.1-9.93-7.1,0-4.25,3.59-6.88,11.84-6.88h5.31c-.15-2.34-1.97-3.65-5.65-3.65-2.56,0-5.41.76-7.22,2l-3.15-5.48c3.05-1.74,7.57-2.68,11.75-2.68,8.65,0,13.61,3.31,13.61,10.62ZM157.09,159.87v-2h-4.03c-3,0-4.08.93-4.08,2.34s1.28,2.34,3.49,2.34c2.06,0,3.88-.85,4.62-2.68Z"/>
    <path d="M190.16,143.85v7.27c-.84-.08-1.43-.13-2.11-.13-3.78,0-6.39,1.66-6.39,5.69v10.58h-9.34v-23.03h8.9v2.76c1.92-2.08,5.01-3.14,8.94-3.14Z"/>
    <path d="M206.08,159.19l-2.75,2.42v5.65h-9.34v-31.53h9.34v16.53l9.53-8.03h11.06l-11.06,9.86,11.99,13.17h-11.3l-7.47-8.07Z"/>
    <path d="M252.18,144.02v6.54h15.19v6.5h-15.19v10.2h-9.73v-29.75h26.98v6.5h-17.25Z"/>
    <path d="M271.3,155.71c0-6.93,6.34-11.86,15.04-11.86s15.04,4.93,15.04,11.86-6.24,11.94-15.04,11.94-15.04-4.97-15.04-11.94ZM291.94,155.71c0-3.49-2.41-5.44-5.6-5.44s-5.6,1.95-5.6,5.44,2.46,5.52,5.6,5.52,5.6-2,5.6-5.52Z"/>
    <path d="M323.54,143.85v7.27c-.83-.08-1.42-.13-2.11-.13-3.78,0-6.39,1.66-6.39,5.69v10.58h-9.34v-23.03h8.9v2.76c1.92-2.08,5.01-3.14,8.95-3.14Z"/>
    <path d="M355.78,144.24v18.83c0,8.71-5.7,12.83-15.63,12.83-5.11,0-9.98-1.02-13.22-3.02l3.39-5.65c2.21,1.53,5.85,2.46,8.99,2.46,5.01,0,7.13-1.95,7.13-5.57v-.76c-1.82,1.83-4.52,2.72-7.91,2.72-7.08,0-13.07-4.33-13.07-11.13s6-11.09,13.07-11.09c3.69,0,6.54,1.02,8.36,3.19v-2.8h8.9ZM346.54,154.94c0-2.8-2.46-4.67-5.8-4.67s-5.85,1.87-5.85,4.67,2.51,4.72,5.85,4.72,5.8-1.91,5.8-4.72Z"/>
    <path d="M388.86,157.79h-19.36c.79,2.34,3.1,3.7,6.54,3.7,2.61,0,4.33-.64,6.14-2l4.92,4.42c-2.56,2.46-6.29,3.74-11.35,3.74-9.49,0-15.63-5.06-15.63-11.94s6.24-11.86,14.65-11.86c7.86,0,14.25,4.33,14.25,11.94,0,.59-.1,1.36-.15,2ZM369.35,153.54h10.91c-.49-2.42-2.56-3.95-5.46-3.95s-4.92,1.53-5.46,3.95Z"/>
    <path d="M408.07,137.52h9.73v23.08h16.42v6.67h-26.15v-29.75Z"/>
    <path d="M462.97,154.48v12.79h-8.7v-2.97c-1.33,2.21-3.98,3.36-7.86,3.36-6.39,0-9.93-3.1-9.93-7.1,0-4.25,3.59-6.88,11.84-6.88h5.31c-.15-2.34-1.97-3.65-5.65-3.65-2.56,0-5.41.76-7.23,2l-3.15-5.48c3.05-1.74,7.57-2.68,11.75-2.68,8.65,0,13.61,3.31,13.61,10.62ZM453.63,159.87v-2h-4.03c-3,0-4.08.93-4.08,2.34s1.28,2.34,3.49,2.34c2.06,0,3.88-.85,4.62-2.68Z"/>
    <path d="M498.7,155.71c0,7.35-5.85,11.94-13.07,11.94-3.49,0-6.09-.85-7.86-2.68v2.29h-8.9v-31.53h9.34v10.5c1.82-1.62,4.33-2.38,7.42-2.38,7.22,0,13.07,4.55,13.07,11.86ZM489.26,155.71c0-3.49-2.46-5.44-5.6-5.44s-5.6,1.95-5.6,5.44,2.46,5.52,5.6,5.52,5.6-2,5.6-5.52Z"/>
    <path d="M500.91,165.27l2.8-5.52c2.46,1.32,6.04,2.12,9.29,2.12s4.18-.6,4.18-1.57c0-3.1-15.73.43-15.73-8.8,0-4.33,4.62-7.65,12.97-7.65,3.74,0,7.86.68,10.52,1.96l-2.8,5.48c-2.65-1.27-5.31-1.7-7.67-1.7-3.15,0-4.28.76-4.28,1.61,0,3.19,15.68-.25,15.68,8.88,0,4.25-4.52,7.56-13.17,7.56-4.52,0-9.19-.98-11.8-2.38Z"/>
  </g>
</svg>